<?xml version="1.0" encoding="UTF-8"?>
<svg id="a" xmlns="http://www.w3.org/2000/svg" xmlns:xlink="http://www.w3.org/1999/xlink" viewBox="0 0 1185.96 167.09">
  <defs>
    <style>
      .cls-1 {
        fill: url(#linear-gradient-2);
      }

      .cls-2 {
        fill: #4a158a;
      }

      .cls-3 {
        fill: url(#linear-gradient-4);
      }

      .cls-4 {
        fill: #13003f;
        stroke: #13003f;
        stroke-miterlimit: 10;
        stroke-width: 2px;
      }

      .cls-5 {
        fill: url(#linear-gradient-3);
      }

      .cls-6 {
        fill: url(#linear-gradient-5);
      }

      .cls-7 {
        fill: url(#linear-gradient);
      }
    </style>
    <linearGradient id="linear-gradient" x1="229.68" y1="306.96" x2="279.08" y2="419.64" gradientTransform="translate(0 439.39) scale(1 -1)" gradientUnits="userSpaceOnUse">
      <stop offset="0" stop-color="#fff"/>
      <stop offset=".15" stop-color="#fbfafd"/>
      <stop offset=".32" stop-color="#efedf7"/>
      <stop offset=".49" stop-color="#ddd8ed"/>
      <stop offset=".66" stop-color="#c2bae0"/>
      <stop offset=".84" stop-color="#a194cf"/>
      <stop offset="1" stop-color="#7c69bd"/>
    </linearGradient>
    <linearGradient id="linear-gradient-2" x1="182.71" y1="991.19" x2="336.49" y2="991.19" gradientTransform="translate(0 -910)" gradientUnits="userSpaceOnUse">
      <stop offset="0" stop-color="#4a158a"/>
      <stop offset=".99" stop-color="#6b2bb3"/>
    </linearGradient>
    <linearGradient id="linear-gradient-3" x1="110.12" y1="1038.14" x2="256.48" y2="1038.14" gradientTransform="translate(0 -910)" gradientUnits="userSpaceOnUse">
      <stop offset="0" stop-color="#4a158a"/>
      <stop offset=".04" stop-color="#521993"/>
      <stop offset=".11" stop-color="#5d1e9f"/>
      <stop offset=".22" stop-color="#6321a6"/>
      <stop offset=".51" stop-color="#6522a8"/>
      <stop offset="1" stop-color="#4a158a"/>
    </linearGradient>
    <linearGradient id="linear-gradient-4" x1="34.19" y1="940.7" x2="187.63" y2="979.4" gradientTransform="translate(0 -910)" gradientUnits="userSpaceOnUse">
      <stop offset="0" stop-color="#4a158a"/>
      <stop offset="0" stop-color="#4d178f"/>
      <stop offset=".04" stop-color="#6325a9"/>
      <stop offset=".09" stop-color="#7431bf"/>
      <stop offset=".14" stop-color="#813ad0"/>
      <stop offset=".21" stop-color="#8b40dc"/>
      <stop offset=".3" stop-color="#9044e3"/>
      <stop offset=".55" stop-color="#9245e5"/>
      <stop offset="1" stop-color="#4a158a"/>
    </linearGradient>
    <linearGradient id="linear-gradient-5" x1="37.31" y1="410.27" x2="176.07" y2="328.11" gradientTransform="translate(0 439.39) scale(1 -1)" gradientUnits="userSpaceOnUse">
      <stop offset="0" stop-color="#4a158a"/>
      <stop offset=".32" stop-color="#6522a8"/>
      <stop offset=".78" stop-color="#9245e5"/>
      <stop offset="1" stop-color="#9245e5"/>
    </linearGradient>
  </defs>
  <path class="cls-7" d="M336.45,21.81c.39,1.03.39,2.16,0,3.19-47.38,17.18-55.3,108.1-102.83,108.1-21.55,0-35.76-15.93-48.19-35.84,19.42-34.74,34.37-80.83,97.08-80.83h36.85c13.4,0,16.04,2.73,17.09,5.39h0Z"/>
  <path class="cls-1" d="M260.1,127.78c-7.72,6.21-17.41,9.6-27.42,9.6-22.56,0-37.32-15.66-49.98-35.35.93-1.56,1.82-3.15,2.72-4.78,12.43,19.91,26.64,35.84,48.19,35.84,47.53,0,55.45-91.03,102.87-108.1-1.42,3.16-3.81,5.81-6.83,7.59-28.77,20.48-41.36,73.43-69.55,95.2h0Z"/>
  <path class="cls-5" d="M232.69,137.38c10,0,19.7-3.39,27.42-9.6-21.22,18.03-48.66,27.52-76.77,26.55-29.48-.83-41.79-4.93-60.74-15.17-3.12-1.7-6.08-3.65-8.85-5.84l2.56-3.22c5.57,3.21,11.94,4.87,18.41,4.78,24,0,37.01-14.3,48-33,12.66,19.84,27.42,35.5,49.98,35.5h0s0,0,0,0Z"/>
  <path class="cls-3" d="M185.43,97.25c-.89,1.63-1.79,3.22-2.72,4.78-16.78-26.02-29.86-59.05-52.42-72.06-13.03-6.94-27.68-10.46-42.52-10.2-26.17,0-43.92,0-51.73.19h-8.85c.68-1.65,1.91-3.04,3.48-3.94,1.57-.9,3.41-1.26,5.22-1.03h62.41c12.1.15,23.94,3.42,34.33,9.48,23.1,13.01,36.43,46.42,52.81,72.78h0Z"/>
  <path class="cls-6" d="M35.26,20.03h.78c7.77,0,25.55-.19,51.73-.19,14.92-.25,29.64,3.31,42.72,10.32,22.56,12.9,35.65,45.93,52.43,72.06-11.11,18.51-24.19,32.66-48.19,32.66-6.48.06-12.85-1.62-18.41-4.85-32.89-18.96-40.58-87.24-81.55-103.51-2.76-1.37-3.26-5.77.5-6.49h0Z"/>
  <path class="cls-2" d="M116.3,130.17l-2.56,3.22c-3.54-2.67-6.87-5.62-9.94-8.8-24.85-25.45-37.82-77.79-69.9-93.99-5.79-3.15-7.65-7.32-6.72-10.58h8.08c-3.88.72-3.3,5.12-.31,6.64,40.78,16.27,48.46,84.66,81.36,103.51Z"/>
  <path class="cls-4" d="M381.07,42.52c.01-.88.37-1.73,1.01-2.35.64-.62,1.5-.98,2.41-.99h.66c.69.03,1.36.22,1.95.56s1.1.81,1.47,1.38l35.92,51.62,35.88-51.62c.34-.59.84-1.08,1.44-1.42.6-.34,1.29-.52,1.98-.51h.66c.9,0,1.77.36,2.4.99.64.62,1.01,1.47,1.01,2.35v84.13c0,.88-.36,1.73-1,2.36-.64.63-1.51.98-2.42.98s-1.78-.35-2.42-.98c-.64-.63-1-1.48-1-2.36V51.43l-33.79,48.06c-.29.5-.72.92-1.23,1.22s-1.09.45-1.68.45c-.59,0-1.16-.16-1.67-.46-.5-.29-.92-.71-1.21-1.21l-33.82-48.06v75.33c.05.45,0,.91-.14,1.34s-.38.83-.69,1.16c-.31.34-.69.61-1.11.79s-.88.28-1.35.28-.92-.1-1.35-.28c-.42-.18-.8-.45-1.11-.79-.31-.34-.54-.73-.68-1.16s-.19-.89-.14-1.34V42.52Z"/>
  <path class="cls-4" d="M491.94,126.11V42.9c.02-.88.38-1.72,1.02-2.34.64-.62,1.49-.98,2.39-1h59.45c.83,0,1.64.32,2.22.9.59.58.92,1.36.92,2.17s-.33,1.6-.92,2.17c-.59.58-1.39.9-2.22.9h-56.04v35.35h50.09c.83,0,1.63.32,2.22.9.59.58.92,1.36.92,2.17s-.33,1.6-.92,2.17c-.59.58-1.39.9-2.22.9h-50.1v36.3h56.7c.83,0,1.64.32,2.22.9.59.58.92,1.36.92,2.17s-.33,1.6-.92,2.17c-.59.58-1.39.9-2.22.9h-60.11c-.47,0-.92-.1-1.35-.28-.43-.18-.81-.44-1.13-.77s-.57-.72-.73-1.14c-.16-.42-.24-.88-.22-1.33h0s0,0,0,0Z"/>
  <path class="cls-4" d="M576.79,42.9c0-.88.37-1.73,1.01-2.35.64-.62,1.5-.98,2.4-.99h27.18c28.93,0,48.89,19.38,48.89,44.68v.27c0,25.3-19.96,44.94-48.89,44.94h-27.18c-.9,0-1.77-.36-2.4-.99-.64-.62-1.01-1.47-1.01-2.35V42.9ZM607.43,123.5c25.63,0,41.82-17.11,41.82-38.54v-.27c0-21.32-16.19-38.8-41.82-38.8h-23.8v77.6h23.8Z"/>
  <path class="cls-4" d="M677.25,42.37c0-.89.36-1.73,1-2.36.64-.63,1.51-.98,2.42-.98s1.78.35,2.42.98c.64.63,1,1.47,1,2.36v84.28c0,.88-.36,1.73-1,2.36-.64.63-1.51.98-2.42.98s-1.77-.35-2.42-.98-1-1.48-1-2.36V42.37Z"/>
  <path class="cls-4" d="M705.02,84.77v-.27c0-25.41,19.42-46.5,46.02-46.5,12.51-.25,24.63,4.26,33.78,12.59.4.34.72.75.95,1.21.22.46.35.97.38,1.48-.04.89-.43,1.74-1.09,2.36-.66.62-1.53.97-2.45.98-.87,0-1.72-.31-2.37-.87-3.85-3.75-8.43-6.72-13.46-8.73s-10.42-3.03-15.86-2.99c-22.1,0-38.83,17.6-38.83,40.2v.27c0,22.76,16.97,40.47,38.83,40.47,5.61.07,11.17-1.01,16.34-3.16,5.16-2.15,9.81-5.32,13.64-9.32.61-.6,1.45-.93,2.31-.93s1.7.34,2.31.93c.61.6.96,1.41.96,2.26s-.34,1.66-.96,2.26c-4.55,4.53-9.99,8.1-16,10.51-6.01,2.41-12.46,3.59-18.95,3.49-26.1.08-45.55-20.44-45.55-46.24,0,0,0,0,0,0Z"/>
  <path class="cls-4" d="M802.88,126.11V42.9c0-.88.38-1.73,1.01-2.35.64-.62,1.5-.98,2.4-.99h59.41c.83,0,1.64.32,2.23.9.59.58.92,1.36.92,2.17s-.33,1.6-.92,2.17c-.59.58-1.39.9-2.23.9h-56v35.35h50.09c.83,0,1.64.32,2.23.9.59.58.92,1.36.92,2.17s-.33,1.6-.92,2.17c-.59.58-1.39.9-2.23.9h-50.09v36.3h56.66c.83,0,1.64.32,2.23.9.59.58.92,1.36.92,2.17s-.33,1.6-.92,2.17c-.59.58-1.39.9-2.23.9h-60.08c-.46,0-.92-.1-1.35-.28-.43-.18-.81-.44-1.13-.77-.32-.33-.57-.72-.72-1.14-.16-.42-.24-.88-.22-1.33h0s0,0,0,0Z"/>
  <path class="cls-4" d="M887.69,42.52c0-.88.38-1.73,1.01-2.35.64-.62,1.5-.98,2.4-.99h1.05c.69.02,1.36.21,1.96.55.59.34,1.1.82,1.46,1.39l62.13,76.92V42.18c0-.42.08-.84.24-1.23.16-.39.4-.75.7-1.05.31-.3.66-.54,1.07-.7.4-.16.82-.25,1.26-.25.88,0,1.71.34,2.34.94.62.6.97,1.42.97,2.28v84.85c0,.73-.27,1.43-.79,1.96-.51.53-1.22.83-1.97.85h-.54c-.7-.08-1.37-.32-1.97-.69-.59-.38-1.09-.88-1.45-1.47l-63.45-78.36v77.45c.05.45,0,.91-.14,1.34-.14.43-.38.83-.69,1.16-.31.34-.69.61-1.11.79s-.88.28-1.34.28-.92-.1-1.35-.28c-.42-.18-.8-.45-1.11-.79-.31-.34-.54-.73-.69-1.16-.14-.43-.19-.89-.14-1.34l.16-84.24h0s0,0,0,0Z"/>
  <path class="cls-4" d="M988.31,42.52c0-.88.38-1.73,1.01-2.35.64-.62,1.5-.98,2.4-.99h1.05c.69.03,1.35.22,1.95.56.6.34,1.1.81,1.47,1.38l62.13,76.92V42.18c0-.86.35-1.68.97-2.28s1.45-.94,2.33-.94,1.71.34,2.33.94.97,1.42.97,2.28v84.85c.01.73-.27,1.43-.79,1.96-.51.53-1.22.83-1.97.85h-.54c-.7-.08-1.37-.32-1.97-.69-.59-.38-1.08-.88-1.45-1.47l-63.14-78.36v77.45c.05.45,0,.91-.14,1.34s-.38.83-.69,1.16c-.31.34-.69.61-1.11.79s-.88.28-1.34.28-.92-.1-1.35-.28c-.42-.18-.8-.45-1.11-.79-.31-.34-.54-.73-.69-1.16-.14-.43-.19-.89-.14-1.34l-.19-84.24h0Z"/>
  <path class="cls-4" d="M1083.13,125.09l39.3-83.22c.33-.95.96-1.77,1.79-2.35.85-.58,1.85-.88,2.87-.87h.28c1.01,0,2,.31,2.82.89.83.58,1.44,1.4,1.76,2.34l39.18,82.95c.34.63.52,1.33.54,2.05-.02.84-.38,1.63-.99,2.22-.62.58-1.45.9-2.31.89-.76-.05-1.5-.32-2.11-.78-.61-.46-1.06-1.08-1.3-1.8l-10.68-23.14h-54.37l-10.8,23.25c-.2.7-.62,1.32-1.21,1.76-.58.44-1.31.69-2.05.71-.8.02-1.59-.26-2.18-.79-.59-.53-.95-1.27-1-2.05,0-.71.16-1.41.46-2.05h0ZM1151.25,98.24l-24.16-52-24.35,52h48.51Z"/>
</svg>