<?xml version="1.0" encoding="UTF-8"?>
<svg data-bbox="6.279 9.36 914.643 151.53" viewBox="0 0 926.49 169.13" xmlns="http://www.w3.org/2000/svg" data-type="color">
    <g>
        <path d="M336.64 152.95c-1.13 4.75-5.03 7.78-10.36 7.81-11.09.06-22.17.02-33.27.02h-42.55c-5.46 0-7.62-2.13-7.64-7.61-.02-22.68 0-45.36 0-68.04V17.99c0-6.51 1.87-8.39 8.35-8.39 24.87 0 49.74-.02 74.63.02 7.89 0 12.67 6.02 10.78 13.55-1.03 4.16-3.76 6.73-8.02 7.48-1.56.27-3.18.25-4.76.25-15.09.02-23.39.05-38.47.05q-.045 0-.06.06c-11.66.03-21.11 9.48-21.11 21.16s9.48 21.17 21.17 21.17c.59 0 1.17-.03 1.76-.08 10.47 0 14.67-.03 25.87.03 6.88.03 11.31 4.69 11.04 11.39-.24 5.84-4.65 10.01-10.9 10.04-11.18.06-16.61-.11-27.78-.11-.41 0-.81.08-1.19.22h-.02c-11.4.64-20.46 10.07-20.46 21.62s8.93 20.87 20.22 21.6c.17.02.35.03.52.03h2.03c14.41 0 24.87.03 39.56.03 8.07 0 12.36 7.43 10.63 14.85Z" fill="#067091" data-color="1"/>
        <path d="M601.51 152.97c-1.13 4.75-5.03 7.78-10.36 7.81-11.09.06-22.17.02-33.27.02h-42.55c-5.46 0-7.62-2.13-7.64-7.61-.02-22.68 0-45.36 0-68.04V18c0-6.51 1.87-8.39 8.35-8.39 24.87 0 49.74-.02 74.63.02 7.89 0 12.67 6.02 10.78 13.55-1.03 4.16-3.76 6.73-8.02 7.48-1.56.27-3.18.25-4.76.25-15.09.02-23.39.05-38.47.05q-.045 0-.06.06c-11.66.03-21.11 9.48-21.11 21.16s9.48 21.17 21.17 21.17c.59 0 1.17-.03 1.76-.08 10.47 0 14.67-.03 25.87.03 6.88.03 11.31 4.69 11.04 11.39-.24 5.84-4.65 10.01-10.9 10.04-11.18.06-16.61-.11-27.78-.11-.41 0-.81.08-1.19.22h-.02c-11.4.64-20.46 10.07-20.46 21.62s8.93 20.87 20.22 21.6c.17.02.35.03.52.03h2.03c14.41 0 24.87.03 39.56.03 8.07 0 12.36 7.43 10.63 14.85Z" fill="#067091" data-color="1"/>
        <path d="M920.57 152.97c-1.13 4.75-5.03 7.78-10.36 7.81-11.09.06-22.17.02-33.27.02h-42.55c-5.46 0-7.62-2.13-7.64-7.61-.02-22.68 0-45.36 0-68.04V18c0-6.51 1.87-8.39 8.35-8.39 24.87 0 49.74-.02 74.63.02 7.89 0 12.67 6.02 10.78 13.55-1.03 4.16-3.76 6.73-8.02 7.48-1.56.27-3.18.25-4.76.25-15.09.02-23.39.05-38.47.05q-.045 0-.06.06c-11.66.03-21.11 9.48-21.11 21.16s9.48 21.17 21.17 21.17c.59 0 1.17-.03 1.76-.08 10.47 0 14.67-.03 25.87.03 6.88.03 11.31 4.69 11.04 11.39-.24 5.84-4.65 10.01-10.9 10.04-11.18.06-16.61-.11-27.78-.11-.41 0-.81.08-1.19.22h-.02c-11.4.64-20.46 10.07-20.46 21.62s8.93 20.87 20.22 21.6c.17.02.35.03.52.03h2.03c14.41 0 24.87.03 39.56.03 8.07 0 12.36 7.43 10.63 14.85Z" fill="#067091" data-color="1"/>
        <path d="M187.25 98.69c5.33 8.36 10.59 16.61 15.85 24.85 5.64 8.84 11.26 17.69 16.94 26.5 1.56 2.41 2.43 4.82.93 7.55-1.5 2.74-3.95 3.18-6.84 3.18h-8.19c-4.21 0-6.78-1.22-9.01-4.78-11.03-17.6-22.25-35.08-33.41-52.6-2-3.15-5-4.04-9.56-2.85-3.19.83-4.84 3.08-4.85 6.99-.04 14.99-.01 29.98-.02 44.97 0 6.47-1.88 8.31-8.42 8.31-2.6 0-5.2.05-7.79-.02-3.83-.1-6.14-2.34-6.38-6.11-.05-.8-.02-1.6-.02-2.4V18.26c0-6.92 1.73-8.64 8.68-8.64 12.99 0 25.98-.05 38.97.02 19.55.11 36.04 11.04 43.08 29.21 8.57 22.12-1.11 47.9-24.54 57.71-1.73.73-3.5 1.37-5.42 2.11Zm8.49-43.68c.01-13.34-10.35-23.9-23.51-23.97-13.77-.07-24.5 10.5-24.42 24.07.08 13.44 10.77 23.91 24.36 23.86 13.12-.05 23.56-10.66 23.57-23.96" fill="#067091" data-color="1"/>
        <path d="M86.42 19.09c3.01-7.26 7.22-10.03 12.99-8.82 4.63.97 8.13 5.4 8.08 10.22-.06 4.94-3.8 9.34-8.6 10.09-5.62.89-9.77-2-12.38-8.91-.5 1.32-.8 2.41-1.31 3.38-2.24 4.27-5.96 5.92-10.62 5.91-10.39-.02-20.78-.01-31.17 0-10.19.01-14.86 4.67-14.87 14.83 0 4.7-.05 9.39.01 14.09.1 8.39 5.11 13.34 13.53 13.36 15.78.03 31.57-.04 47.35.03 7.98.03 12.94 6.44 10.89 13.86-1.28 4.62-5.43 7.57-10.95 7.58-15.08.03-30.17 0-45.25.01-9.97 0-14.9 4.92-14.91 14.91-.02 14.39 0 28.77 0 43.16 0 5.95-2.01 7.97-7.85 7.98-2.8 0-5.59.04-8.39-.01-4.05-.08-6.46-2.45-6.67-6.51-.04-.7-.01-1.4-.01-2.1V18.17c0-6.68 1.9-8.59 8.5-8.59h59.33c6.99 0 10.24 2.43 12.3 9.5Zm-10.95-8.6c-5.37.09-9.55 4.44-9.46 9.85.08 5.23 4.34 9.45 9.56 9.48 5.24.02 9.73-4.48 9.7-9.72-.03-5.27-4.54-9.7-9.79-9.61Z" fill="#067091" data-color="1"/>
        <path d="M617.45 87.09c0-22.09-.02-44.17.02-66.26 0-5.51 3.53-9.91 8.69-11.16 4.95-1.2 10.5 1.16 12.59 5.83.94 2.1 1.36 4.61 1.37 6.94.08 33.68.05 67.36.07 101.04 0 7.73 3.67 13.13 10.35 15.01 1.98.56 4.14.66 6.22.66 14.39.05 22.42 0 36.81.06 1.88 0 3.83.13 5.62.65 4.87 1.42 8.07 6.19 7.59 10.91-.54 5.34-4.31 9.14-9.73 9.73-1.09.12-2.2.08-3.29.08h-67.99c-6.44 0-8.3-1.89-8.3-8.44V87.08Z" fill="#067091" data-color="1"/>
        <path d="M722.12 87.09c0-22.09-.02-44.17.02-66.26 0-5.51 3.53-9.91 8.69-11.16 4.95-1.2 10.5 1.16 12.59 5.83.94 2.1 1.36 4.61 1.37 6.94.08 33.68.05 67.36.07 101.04 0 7.73 3.67 13.13 10.35 15.01 1.98.56 4.14.66 6.22.66 14.39.05 22.42 0 36.81.06 1.88 0 3.83.13 5.62.65 4.87 1.42 8.07 6.19 7.59 10.91-.54 5.34-4.31 9.14-9.73 9.73-1.09.12-2.2.08-3.29.08h-67.99c-6.44 0-8.3-1.89-8.3-8.44V87.08Z" fill="#067091" data-color="1"/>
        <path d="M485.17 21.31v102.47c0 20.49-16.61 37.1-37.1 37.1s-37.1-16.61-37.1-37.1V47.06c0-7.94-6.42-14.37-14.33-14.37s-14.33 6.43-14.33 14.37V149.5c0 6.29-5.1 11.39-11.39 11.39s-11.39-5.1-11.39-11.39V47.06c0-20.49 16.61-37.1 37.1-37.1s37.1 16.61 37.1 37.1v76.72c0 7.94 6.42 14.37 14.33 14.37s14.33-6.43 14.33-14.37V21.31c0-6.29 5.1-11.39 11.39-11.39s11.39 5.1 11.39 11.39" fill="#067091" data-color="1"/>
    </g>
</svg>
