<?xml version="1.0" encoding="UTF-8"?>
<svg data-bbox="316.12 258.62 1313.07 296" xmlns="http://www.w3.org/2000/svg" viewBox="0 0 1920 771" data-type="color">
    <g>
        <path fill="#0b3784" d="M316.12 550.62v-280h46v280zm169.2 0-129.6-146 126.8-134h58.8l-140 145.6v-25.2l144 159.6z" data-color="1"/>
        <path fill="#0b3784" d="M641.08 554.62c-19.2 0-36.47-4.33-51.8-13-15.34-8.66-27.47-20.6-36.4-35.8-8.94-15.2-13.4-32.26-13.4-51.2s4.4-35.93 13.2-51c8.8-15.06 20.73-27 35.8-35.8 15.06-8.8 31.8-13.2 50.2-13.2s33.66 4.14 47.4 12.4c13.73 8.27 24.53 19.6 32.4 34 7.86 14.4 11.8 30.8 11.8 49.2 0 3.2-.2 6.47-.6 9.8-.4 3.34-1 7-1.8 11h-157.6v-36h134.8l-16.4 14.4c-.54-11.73-2.8-21.6-6.8-29.6s-9.67-14.13-17-18.4c-7.34-4.26-16.34-6.4-27-6.4-11.2 0-20.94 2.4-29.2 7.2-8.27 4.8-14.67 11.54-19.2 20.2-4.54 8.67-6.8 19-6.8 31s2.4 22.54 7.2 31.6q7.2 13.605 20.4 21c8.8 4.94 18.93 7.4 30.4 7.4 9.86 0 19-1.73 27.4-5.2 8.4-3.46 15.53-8.53 21.4-15.2l28 28.4c-9.34 10.94-20.67 19.2-34 24.8-13.34 5.6-27.47 8.4-42.4 8.4" data-color="1"/>
        <path fill="#0b3784" d="M781.24 323.42c-7.47 0-13.67-2.53-18.6-7.6-4.94-5.06-7.4-11.33-7.4-18.8s2.46-13.73 7.4-18.8c4.93-5.06 11.13-7.6 18.6-7.6s14 2.54 18.8 7.6c4.8 5.07 7.2 11.34 7.2 18.8s-2.4 13.74-7.2 18.8c-4.8 5.07-11.07 7.6-18.8 7.6m-22 227.2v-192h44v192z" data-color="1"/>
        <path fill="#0b3784" d="M823.23 398.62v-40h148v40zm46 152v-217.2c0-14.66 3.26-27.6 9.8-38.8 6.53-11.2 15.6-20 27.2-26.4q17.4-9.6 40.2-9.6 17.595 0 30 6c8.26 4 16 9.74 23.2 17.2l-28.4 28.4c-3.2-3.2-6.67-5.73-10.4-7.6-3.74-1.86-8.54-2.8-14.4-2.8-10.67 0-18.87 2.87-24.6 8.6s-8.6 13.94-8.6 24.6v217.6z" data-color="1"/>
        <path fill="#0b3784" d="M1082.71 554.62c-19.2 0-36.47-4.33-51.8-13-15.34-8.66-27.47-20.6-36.4-35.8-8.94-15.2-13.4-32.26-13.4-51.2s4.4-35.93 13.2-51c8.8-15.06 20.73-27 35.8-35.8 15.06-8.8 31.8-13.2 50.2-13.2s33.66 4.14 47.4 12.4c13.73 8.27 24.53 19.6 32.4 34 7.86 14.4 11.8 30.8 11.8 49.2 0 3.2-.2 6.47-.6 9.8-.4 3.34-1 7-1.8 11h-157.6v-36h134.8l-16.4 14.4c-.54-11.73-2.8-21.6-6.8-29.6s-9.67-14.13-17-18.4c-7.34-4.26-16.34-6.4-27-6.4-11.2 0-20.94 2.4-29.2 7.2-8.27 4.8-14.67 11.54-19.2 20.2-4.54 8.67-6.8 19-6.8 31s2.4 22.54 7.2 31.6q7.2 13.605 20.4 21c8.8 4.94 18.93 7.4 30.4 7.4 9.86 0 19-1.73 27.4-5.2 8.4-3.46 15.53-8.53 21.4-15.2l28 28.4c-9.34 10.94-20.67 19.2-34 24.8-13.34 5.6-27.47 8.4-42.4 8.4" data-color="1"/>
        <path fill="#129ba5" d="M1208.47 550.62v-280h46v280zm31.6-118.8v-38h70.8c14.13 0 25.13-3.66 33-11 7.86-7.33 11.8-17.53 11.8-30.6 0-11.73-3.87-21.6-11.6-29.6-7.74-8-18.67-12-32.8-12h-71.2v-40h73.2c17.6 0 33.06 3.54 46.4 10.6 13.33 7.07 23.66 16.67 31 28.8 7.33 12.14 11 25.94 11 41.4 0 16.27-3.67 30.4-11 42.4-7.34 12-17.67 21.34-31 28-13.34 6.67-28.8 10-46.4 10zm122 118.8-98-121.6 42.8-15.6 113.2 137.2z" data-color="2"/>
        <path fill="#129ba5" d="m1435.19 550.62 77.6-107.6 25.6 31.6-52 76zm141.2 0-55.2-81.2-8-7.2-74.4-103.6h53.2l49.2 71.2 7.6 6.8 80.4 114zm-23.6-89.2-26-31.2 48-71.6h50.8z" data-color="2"/>
    </g>
</svg>
