<?xml version="1.0" encoding="UTF-8"?>
<svg data-bbox="20.74 28.526 1729.64 213.634" xmlns="http://www.w3.org/2000/svg" viewBox="0 0 1778.81 254.47" data-type="color">
    <g>
        <path fill="#e11766" d="M74.1 167.34c-2.81-5.03-4.22-10.55-4.22-16.58s1.41-11.56 4.22-16.59c2.82-5.03 6.67-8.98 11.56-11.86q7.335-4.32 16.38-4.32h.2c5.95.04 11.34 1.48 16.18 4.32 4.89 2.88 8.75 6.83 11.56 11.86 2.82 5.03 4.22 10.55 4.22 16.59s-1.4 11.56-4.22 16.58c-2.81 5.03-6.67 8.98-11.56 11.86-4.83 2.85-10.23 4.29-16.18 4.32h-.2c-5.89 0-11.32-1.44-16.28-4.32s-8.84-6.83-11.66-11.86" data-color="1"/>
        <path fill="#e11766" d="M183.54 151.74c0 25.9-12.09 48.96-30.94 63.87a81.5 81.5 0 0 1-19.36 11.37c-9.58 3.97-20.08 6.15-31.1 6.15s-21.52-2.19-31.1-6.15c-.46-.19-.76-.64-.76-1.14v-37.66s.01-.02.02 0c3.88 4.55 8.5 8.09 13.85 10.63 5.36 2.55 11.32 3.82 17.89 3.82h.2c9.3-.04 17.88-2.35 25.73-6.94 7.91-4.62 14.2-10.92 18.9-18.9 4.69-7.97 7.03-16.65 7.03-26.03s-2.35-18.06-7.03-26.03c-4.69-7.97-10.99-14.27-18.9-18.89-7.85-4.59-16.43-6.9-25.73-6.94h-.2c-9.38 0-18.03 2.31-25.93 6.94-7.91 4.62-14.17 10.92-18.79 18.89-4.62 7.98-6.94 16.65-6.94 26.03v58.84c0 1.96-2.34 2.98-3.78 1.64-15.91-14.85-25.86-36.01-25.86-59.51 0-53.6 49.13-68.48 64.61-123.2 0 0 .01-.01.02 0 48.84 33.88 98.17 76.65 98.17 123.21" data-color="1"/>
        <path fill="#231f20" d="M256.53 126.26c4.6-7.93 10.83-14.2 18.7-18.8q11.805-6.9 25.8-6.9c13.995 0 17.93 2.3 25.8 6.9s14.13 10.87 18.8 18.8 7 16.57 7 25.9-2.33 17.97-7 25.9-10.93 14.2-18.8 18.8q-11.805 6.9-25.8 6.9c-6.53 0-12.47-1.27-17.8-3.8s-9.93-6.07-13.8-10.6v52.8h-19.8v-90c0-9.33 2.3-17.97 6.9-25.9m60.8 54.2c4.87-2.87 8.7-6.8 11.5-11.8q4.2-7.5 4.2-16.5c0-9-1.4-11.5-4.2-16.5s-6.63-8.93-11.5-11.8-10.3-4.3-16.3-4.3-11.43 1.43-16.3 4.3-8.7 6.8-11.5 11.8q-4.2 7.5-4.2 16.5c0 9 1.4 11.5 4.2 16.5s6.67 8.93 11.6 11.8 10.33 4.3 16.2 4.3 11.43-1.43 16.3-4.3" data-color="2"/>
        <path fill="#231f20" d="M385.51 196.86c-7.87-4.6-14.13-10.87-18.8-18.8s-7-16.57-7-25.9 2.33-17.97 7-25.9 10.93-14.2 18.8-18.8q11.805-6.9 25.8-6.9c13.995 0 17.93 2.3 25.8 6.9s14.1 10.87 18.7 18.8 6.9 16.57 6.9 25.9v50h-19.6v-15.8c-2.4 4.93-6.57 9.07-12.5 12.4s-12.37 5-19.3 5q-13.995 0-25.8-6.9m42.2-16.4c4.8-2.87 8.6-6.8 11.4-11.8q4.2-7.5 4.2-16.5c0-9-1.37-11.5-4.1-16.5s-6.53-8.93-11.4-11.8-10.3-4.3-16.3-4.3-11.47 1.43-16.4 4.3-8.8 6.8-11.6 11.8q-4.2 7.5-4.2 16.5c0 9 1.43 11.5 4.3 16.5s6.73 8.93 11.6 11.8 10.3 4.3 16.3 4.3 11.4-1.43 16.2-4.3" data-color="2"/>
        <path fill="#231f20" d="M477.95 84.86c-2.33-2.33-3.5-5.17-3.5-8.5s1.17-6.33 3.5-8.6 5.17-3.4 8.5-3.4 6.13 1.17 8.4 3.5 3.4 5.17 3.4 8.5-1.13 6.17-3.4 8.5-5.07 3.5-8.4 3.5-6.17-1.17-8.5-3.5m-1.3 17.3h19.6v100h-19.6z" data-color="2"/>
        <path fill="#231f20" d="M598.61 202.16h-19.6v-52.6q0-15-6.3-22.5c-4.2-5-10.23-7.5-18.1-7.5s-13.9 2.5-18.1 7.5q-6.3 7.5-6.3 22.5v52.6h-19.6v-52.6c0-16.27 4-28.5 12-36.7s18.67-12.3 32-12.3 24 4.1 32 12.3 12 20.43 12 36.7z" data-color="2"/>
        <path fill="#231f20" d="M637.21 121.16v33.6q0 13.995 5.4 21c3.6 4.67 9 7.33 16.2 8v19c-12.53-.53-22.5-4.77-29.9-12.7s-11.17-19.63-11.3-35.1v-33.8h-14.8v-19h14.8v-35.8h19.6v35.8h21.6v19z" data-color="2"/>
        <path fill="#231f20" d="M751.4 121.16v33.6q0 13.995 5.4 21c3.6 4.67 9 7.33 16.2 8v19c-12.53-.53-22.5-4.77-29.9-12.7s-11.17-19.63-11.3-35.1v-33.8H717v-19h14.8v-35.8h19.6v35.8H773v19z" data-color="2"/>
        <path fill="#231f20" d="M857.86 112.86c8 8.2 12 20.43 12 36.7v52.6h-19.6v-52.6q0-15-6.3-22.5c-4.2-5-10.23-7.5-18.1-7.5s-13.9 2.47-18.1 7.4q-6.3 7.395-6.3 22.2v53h-19.6v-140h19.6v49c3.07-3.87 6.6-6.6 10.6-8.2q6-2.4 13.8-2.4c13.33 0 24 4.1 32 12.3" data-color="2"/>
        <path fill="#231f20" d="M886.47 126.46c4.47-7.93 10.6-14.23 18.4-18.9s16.37-7 25.7-7c8.67 0 16.9 2.03 24.7 6.1s14.17 9.87 19.1 17.4 7.53 16.3 7.8 26.3q0 4.995-.6 9h-80.8c.8 7.47 3.97 13.57 9.5 18.3s12.3 7.1 20.3 7.1c9.87 0 17.87-3.33 24-10l23.4.2c-4.4 8.67-10.8 15.63-19.2 20.9s-17.6 7.9-27.6 7.9c-9.47 0-18.13-2.3-26-6.9s-14.07-10.83-18.6-18.7-6.8-16.47-6.8-25.8 2.23-17.97 6.7-25.9m74.7 16.9q-2.805-10.395-11.1-17.1c-5.53-4.47-11.83-6.7-18.9-6.7q-11.4 0-19.5 6.6c-5.4 4.4-9.03 10.13-10.9 17.2z" data-color="2"/>
        <path fill="#231f20" d="M991.54 149.96c0-16 3.83-28.03 11.5-36.1s17.83-12.1 30.5-12.1h2v19h-2c-7.2 0-12.73 2.4-16.6 7.2s-5.8 12.13-5.8 22v52.2h-19.6z" data-color="2"/>
        <path fill="#231f20" d="M1064.28 196.86c-7.87-4.6-14.13-10.87-18.8-18.8s-7-16.57-7-25.9 2.33-17.97 7-25.9 10.93-14.2 18.8-18.8q11.805-6.9 25.8-6.9c13.995 0 17.93 2.3 25.8 6.9s14.1 10.87 18.7 18.8 6.9 16.57 6.9 25.9v50h-19.6v-15.8c-2.4 4.93-6.57 9.07-12.5 12.4s-12.37 5-19.3 5q-13.995 0-25.8-6.9m42.2-16.4c4.8-2.87 8.6-6.8 11.4-11.8q4.2-7.5 4.2-16.5c0-9-1.37-11.5-4.1-16.5s-6.53-8.93-11.4-11.8-10.3-4.3-16.3-4.3-11.47 1.43-16.4 4.3-8.8 6.8-11.6 11.8q-4.2 7.5-4.2 16.5c0 9 1.43 11.5 4.3 16.5s6.73 8.93 11.6 11.8 10.3 4.3 16.3 4.3 11.4-1.43 16.2-4.3" data-color="2"/>
        <path fill="#231f20" d="M1161.26 126.26c4.6-7.93 10.83-14.2 18.7-18.8q11.805-6.9 25.8-6.9c13.995 0 17.93 2.3 25.8 6.9s14.13 10.87 18.8 18.8 7 16.57 7 25.9-2.33 17.97-7 25.9-10.93 14.2-18.8 18.8q-11.805 6.9-25.8 6.9c-6.53 0-12.47-1.27-17.8-3.8s-9.93-6.07-13.8-10.6v52.8h-19.8v-90c0-9.33 2.3-17.97 6.9-25.9m60.8 54.2c4.87-2.87 8.7-6.8 11.5-11.8q4.2-7.5 4.2-16.5c0-9-1.4-11.5-4.2-16.5s-6.63-8.93-11.5-11.8-10.3-4.3-16.3-4.3-11.43 1.43-16.3 4.3-8.7 6.8-11.5 11.8-4.2 10.5-4.2 16.5 1.4 11.5 4.2 16.5 6.67 8.93 11.6 11.8 10.33 4.3 16.2 4.3 11.43-1.43 16.3-4.3" data-color="2"/>
        <path fill="#231f20" d="M1271.04 126.46c4.47-7.93 10.6-14.23 18.4-18.9s16.37-7 25.7-7c8.67 0 16.9 2.03 24.7 6.1s14.17 9.87 19.1 17.4 7.53 16.3 7.8 26.3q0 4.995-.6 9h-80.8c.8 7.47 3.97 13.57 9.5 18.3s12.3 7.1 20.3 7.1c9.87 0 17.87-3.33 24-10l23.4.2c-4.4 8.67-10.8 15.63-19.2 20.9s-17.6 7.9-27.6 7.9c-9.47 0-18.13-2.3-26-6.9s-14.07-10.83-18.6-18.7-6.8-16.47-6.8-25.8 2.23-17.97 6.7-25.9m74.7 16.9q-2.805-10.395-11.1-17.1c-5.53-4.47-11.83-6.7-18.9-6.7q-11.4 0-19.5 6.6c-5.4 4.4-9.03 10.13-10.9 17.2z" data-color="2"/>
        <path fill="#231f20" d="M1464.12 102.16v52.6c0 16.27-4 28.5-12 36.7s-18.67 12.3-32 12.3-24-4.1-32-12.3-12-20.43-12-36.7v-52.6h19.6v52.6q0 15 6.3 22.5c6.3 7.5 10.23 7.5 18.1 7.5s13.9-2.5 18.1-7.5 6.3-12.5 6.3-22.5v-52.6z" data-color="2"/>
        <path fill="#231f20" d="M1505.24 121.16v33.6q0 13.995 5.4 21c3.6 4.67 9 7.33 16.2 8v19c-12.53-.53-22.5-4.77-29.9-12.7s-11.17-19.63-11.3-35.1v-33.8h-14.8v-19h14.8v-35.8h19.6v35.8h21.6v19z" data-color="2"/>
        <path fill="#231f20" d="M1536.94 84.86c-2.33-2.33-3.5-5.17-3.5-8.5s1.17-6.33 3.5-8.6 5.17-3.4 8.5-3.4 6.13 1.17 8.4 3.5 3.4 5.17 3.4 8.5-1.13 6.17-3.4 8.5-5.07 3.5-8.4 3.5-6.17-1.17-8.5-3.5m-1.3 17.3h19.6v100h-19.6z" data-color="2"/>
        <path fill="#231f20" d="M1591.86 196.86c-7.93-4.6-14.2-10.87-18.8-18.8s-6.9-16.57-6.9-25.9 2.3-17.97 6.9-25.9 10.87-14.2 18.8-18.8 16.57-6.9 25.9-6.9c10.8 0 20.53 3.07 29.2 9.2s14.8 14.07 18.4 23.8h-21c-2.93-4.27-6.67-7.67-11.2-10.2s-9.6-3.8-15.2-3.8c-6 0-11.47 1.43-16.4 4.3s-8.8 6.8-11.6 11.8q-4.2 7.5-4.2 16.5c0 9 1.43 11.5 4.3 16.5s6.73 8.93 11.6 11.8 10.3 4.3 16.3 4.3c5.46 0 10.43-1.2 14.9-3.6s8.17-5.73 11.1-10h21.4c-3.6 9.73-9.73 17.6-18.4 23.6s-18.4 9-29.2 9c-9.33 0-17.97-2.3-25.9-6.9" data-color="2"/>
        <path fill="#231f20" d="M1691.68 200.06c-5.93-2.47-10.7-6.1-14.3-10.9s-5.4-10.47-5.4-17h18.8c0 4.27 1.97 7.67 5.9 10.2s8.9 3.8 14.9 3.8 10.87-1.2 14.2-3.6 5-5.6 5-9.6c0-4.4-1.87-7.53-5.6-9.4q-5.595-2.805-17.4-5.4c-7.2-1.6-13.07-3.23-17.6-4.9q-6.795-2.505-11.7-8.4c-3.27-3.93-4.9-9.3-4.9-16.1 0-5.47 1.63-10.33 4.9-14.6s7.73-7.6 13.4-10 11.9-3.6 18.7-3.6c10.67 0 19.43 2.67 26.3 8s10.3 12.67 10.3 22h-18.8c0-3.73-1.77-6.77-5.3-9.1s-7.83-3.5-12.9-3.5-9 1.13-12.2 3.4-4.8 5.2-4.8 8.8 1.73 6.43 5.2 8.1 8.93 3.37 16.4 5.1c7.33 1.6 13.4 3.27 18.2 5q7.2 2.595 12.3 8.7c3.4 4.07 5.1 9.63 5.1 16.7 0 9.73-3.63 17.17-10.9 22.3s-16.7 7.7-28.3 7.7c-7.07 0-13.57-1.23-19.5-3.7" data-color="2"/>
    </g>
</svg>
