<?xml version="1.0" encoding="UTF-8"?>
<svg data-bbox="91.315 0 205.93 383.24" xmlns="http://www.w3.org/2000/svg" viewBox="0 0 384.52 383.25" data-type="ugc">
    <g>
        <defs>
            <linearGradient id="8b187209-10bc-4cc3-acaa-015c43c8f116" x1="-1500.42" y1="-13271.77" x2="-1394.25" y2="-13586.4" gradientTransform="translate(1640.38 13617.13)" gradientUnits="userSpaceOnUse">
                <stop offset=".56" stop-color="#0b8dfb"/>
                <stop offset=".65" stop-color="#0ba3f0"/>
                <stop offset=".79" stop-color="#0bbce4"/>
                <stop offset=".91" stop-color="#0bccdd"/>
                <stop offset="1" stop-color="#0cd2db"/>
            </linearGradient>
        </defs>
        <path fill="url(#8b187209-10bc-4cc3-acaa-015c43c8f116)" d="M297.23 228.54c-.78 40.56-43.68 70.98-85.8 71.76-.76.02-14.43 36.61-15.19 81a1.965 1.965 0 0 1-1.96 1.94c-1.08 0-1.95-.87-1.97-1.95-.77-44.44-14.43-80.98-15.19-80.99-42.12-.78-85.02-31.2-85.8-71.76-.57-29.63 49.92-76.44 21.06-159.12 37.77 39.63 14.1 114.16 2.73 143.2a31.33 31.33 0 0 0 1.58 26.2c15.04 28.1 30.05 31.06 40.93 31.06 33.54-11.7 22.62-39 6.24-43.68 19.5-31.98 13.26-71.76 30.42-226.2 17.16 154.44 10.92 194.22 30.42 226.2-16.38 4.68-27.3 31.98 6.24 43.68 10.87 0 25.89-2.96 40.93-31.06a31.33 31.33 0 0 0 1.58-26.2c-11.37-29.05-35.04-103.57 2.73-143.2-28.86 82.68 21.63 129.49 21.06 159.12Z"/>
    </g>
</svg>
