<?xml version="1.0" encoding="UTF-8"?>
<svg data-bbox="72.79 76.65 1640.65 209.35" xmlns="http://www.w3.org/2000/svg" viewBox="0 0 1844.57 362.72" data-type="ugc">
    <g>
        <defs>
            <linearGradient id="b921bc1b-1686-4a8a-bea8-58963cee48f3" x1="1275.64" y1="209.94" x2="1551.45" y2="130.94" gradientUnits="userSpaceOnUse">
                <stop offset="0" stop-color="#0a96f7"/>
                <stop offset=".19" stop-color="#08a1f1"/>
                <stop offset="1" stop-color="#00cfdd"/>
            </linearGradient>
        </defs>
        <path d="M233.91 148.98c0 43.81-31.75 70.27-84.09 70.27H94.55v64.98H72.79V78.42h77.03c52.33 0 84.09 26.46 84.09 70.56m-21.76 0c0-32.93-21.76-51.75-62.92-51.75H94.55v102.9h54.68c41.16 0 62.92-18.82 62.92-51.16Z"/>
        <path d="M275.62 181.32c0-59.98 45.87-104.67 108.19-104.67s107.9 44.39 107.9 104.67-46.16 104.67-107.9 104.67-108.19-44.69-108.19-104.67m194.33 0c0-49.1-36.75-85.26-86.14-85.26s-86.73 36.16-86.73 85.26 37.04 85.26 86.73 85.26 86.14-36.16 86.14-85.26"/>
        <path d="m530.31 259.23 8.53-16.76c14.7 14.41 40.87 24.99 67.92 24.99 38.51 0 55.27-16.17 55.27-36.46 0-56.45-126.72-21.76-126.72-97.9 0-30.28 23.52-56.45 75.85-56.45 23.23 0 47.33 6.76 63.8 18.23l-7.35 17.35c-17.64-11.47-38.22-17.05-56.45-17.05-37.63 0-54.39 16.76-54.39 37.34 0 56.45 126.72 22.34 126.72 97.32 0 30.28-24.11 56.16-76.74 56.16-30.87 0-61.15-10.88-76.44-26.75Z"/>
        <path d="M885.43 265.41v18.82H739.9V78.42h141.12v18.82H761.65v73.21h106.43v18.52H761.65v76.44z"/>
        <path d="M936.81 78.42h21.76v205.8h-21.76z"/>
        <path d="M1031.1 78.42h83.79c65.86 0 110.25 42.34 110.25 102.9s-44.39 102.9-110.25 102.9h-83.79zm82.61 186.99c54.69 0 89.97-34.69 89.97-84.09s-35.28-84.09-89.97-84.09h-60.86V265.4h60.86Z"/>
        <path fill="url(#b921bc1b-1686-4a8a-bea8-58963cee48f3)" d="M1267.44 181.32c0-59.98 45.87-104.67 108.2-104.67s107.9 44.39 107.9 104.67-46.16 104.67-107.9 104.67-108.2-44.69-108.2-104.67m194.34 0c0-49.1-36.75-85.26-86.14-85.26s-86.73 36.16-86.73 85.26 37.04 85.26 86.73 85.26 86.14-36.16 86.14-85.26"/>
        <path d="M1713.44 78.42v205.8h-17.94l-132.3-167v167h-21.76V78.42h17.93l132.6 167v-167h21.46Z"/>
    </g>
</svg>
