<?xml version="1.0" encoding="UTF-8"?>
<svg data-bbox="0 0 116.52 117.72" viewBox="0 0 116.52 117.72" xmlns="http://www.w3.org/2000/svg" data-type="ugc">
    <g>
        <defs>
            <linearGradient gradientUnits="userSpaceOnUse" gradientTransform="matrix(1 0 0 -1 0 -127.81)" y2="-157.15" x2="88.24" y1="-215.45" x1="29.34" id="9df7ab9a-e579-461c-bd9a-85b212c7cd73">
                <stop stop-color="#eb207d" offset="0"/>
                <stop stop-color="#f05334" offset=".6"/>
                <stop stop-color="#f17f35" offset="1"/>
            </linearGradient>
        </defs>
        <path d="M81.46 27.26c-4.8.6-7.8-2-10.7-3.8-1.7-1.3-3.9-2-6.2-1.7-1.8.2-3.4 1-4.6 2.2-2.5 1.7-3.9 4.8-3.5 8 .6 4.6 4.8 7.8 9.4 7.2 1.8-.2 3.4-1 4.6-2.2.8-.5 1.4-1.2 2-2 1.1-1.2 2.1-2.5 3.4-3.6 1.3-1 2.9-1.7 4.9-2 5.1-.7 7.9 2.4 11 4.3 1.6 1 3.6 1.5 5.6 1.2 1.8-.2 3.4-1 4.6-2.2.5-.3.9-.7 1.3-1.1.7-.6 1.2-1.4 1.6-2.3.6-1.4.9-3 .7-4.6s-.9-3.1-1.8-4.2q-.9-1.2-2.1-1.8c-1.6-1-3.5-1.4-5.5-1.1-1.8.2-3.4 1-4.6 2.2-.5.4-1 .8-1.4 1.2-1.4 1.4-2.5 3.1-4.1 4.5-1.2.9-2.6 1.5-4.5 1.8zm14.5 26c4.1 3.1 8.1 1.8 11.7 1.7 1.9 0 3.9.5 5.5 1.7s2.6 2.9 3.1 4.7c.3.9.3 1.8.2 2.8-.1 1.5-.7 3-1.7 4.3s-2.3 2.2-3.7 2.8c-.9.4-1.8.6-2.7.5-1.9 0-3.7-.5-5.3-1.7-1.6-1.3-2.7-3-3.1-4.9-.9-3.5-.7-7.7-4.8-10.8-3.8-2.9-7.6-2.2-11-2-2.2.3-4.5-.2-6.4-1.6-3.7-2.8-4.4-8.1-1.6-11.8s8.1-4.4 11.8-1.6c1.9 1.4 3 3.4 3.2 5.6.8 3.4 1 7.3 4.9 10.3zm-6.3 28.8c-.6-4.8 2-7.8 3.8-10.7 1.3-1.7 2-3.9 1.7-6.2-.6-4.6-4.8-7.8-9.4-7.2s-7.8 4.8-7.2 9.4c.3 2.4 1.6 4.4 3.4 5.7 2.5 2.3 5.7 4.5 6.4 9.2.7 5.1-2.4 7.9-4.3 11-1 1.6-1.5 3.6-1.2 5.6s1.2 3.7 2.6 5c.6.7 1.4 1.2 2.3 1.6 1.4.6 3 .9 4.6.7s3.1-.9 4.2-1.9q1.2-.9 1.8-2.1c1-1.6 1.4-3.5 1.1-5.5s-1.3-3.8-2.7-5.1c-2.6-2.5-6.3-4.4-7-9.5zm-25.4 15.1c-3.1 4.1-1.8 8.1-1.7 11.7 0 1.9-.5 3.9-1.7 5.5s-2.9 2.6-4.7 3.1c-.9.3-1.8.3-2.8.2-1.5-.1-3-.7-4.3-1.7s-2.2-2.3-2.8-3.7c-.4-.9-.6-1.8-.5-2.7 0-1.9.5-3.7 1.7-5.3 1.3-1.6 3-2.7 4.9-3.1 3.5-.9 7.7-.7 10.8-4.8 2.9-3.8 2.2-7.6 2-11-.3-2.2.2-4.5 1.6-6.4 2.8-3.7 8.1-4.4 11.8-1.6s4.4 8.1 1.6 11.8c-1.4 1.9-3.4 3-5.6 3.2-3.4.8-7.3 1.1-10.3 4.9zm-27.7-7.2c4.8-.6 7.8 2 10.7 3.8 1.7 1.3 3.9 2 6.2 1.7 4.6-.6 7.8-4.8 7.2-9.4s-4.8-7.8-9.4-7.2c-2.4.3-4.4 1.6-5.7 3.4-2.3 2.5-4.5 5.7-9.2 6.4-5.1.7-7.9-2.4-11-4.3-1.6-1-3.6-1.5-5.6-1.2s-3.7 1.2-5 2.5c-.7.6-1.2 1.4-1.6 2.3-.6 1.4-.9 3-.7 4.6s.9 3.1 1.8 4.2q.9 1.2 2.1 1.8c1.6 1 3.5 1.4 5.5 1.1s3.8-1.3 5.1-2.7c2.6-2.6 4.4-6.3 9.5-7zm-16-24.2c-4.1-3.1-8.1-1.8-11.7-1.7-1.9 0-3.9-.5-5.5-1.7s-2.6-2.9-3.1-4.7c-.3-.9-.3-1.8-.2-2.8.1-1.5.7-3 1.7-4.3s2.3-2.2 3.7-2.8c.9-.4 1.8-.6 2.7-.5 1.9 0 3.7.5 5.3 1.7 1.6 1.3 2.7 3 3.1 4.9.9 3.5.7 7.7 4.8 10.8 3.8 2.9 7.6 2.2 11 2 2.2-.3 4.5.2 6.4 1.6 3.7 2.8 4.4 8.1 1.6 11.8s-8.1 4.4-11.8 1.6c-1.9-1.4-3-3.4-3.2-5.6-.8-3.4-1-7.3-4.9-10.3zm6-29.4c.6 4.8-2 7.8-3.8 10.7-1.3 1.7-2 3.9-1.7 6.2.6 4.6 4.8 7.8 9.4 7.2s7.8-4.8 7.2-9.4c-.3-2.4-1.6-4.4-3.4-5.7-2.5-2.3-5.7-4.5-6.4-9.2-.7-5.1 2.4-7.9 4.3-11 1-1.6 1.5-3.6 1.2-5.6s-1.2-3.7-2.6-5c-.6-.7-1.4-1.2-2.3-1.6-1.4-.6-3-.9-4.6-.7s-3.1.9-4.2 1.8q-1.2.9-1.8 2.1c-1 1.6-1.4 3.5-1.1 5.5s1.3 3.8 2.7 5.1c2.6 2.5 6.3 4.4 7 9.5zm25.1-15.8c3.1-4.1 1.8-8.1 1.7-11.7 0-1.9.5-3.9 1.7-5.5s2.9-2.6 4.7-3.1c.9-.3 1.8-.3 2.8-.2 1.5.1 3 .7 4.3 1.7s2.2 2.3 2.8 3.7c.4.9.6 1.8.5 2.7 0 1.9-.5 3.7-1.7 5.3-1.3 1.6-3 2.7-4.9 3.1-3.5.9-7.7.7-10.8 4.8-2.9 3.8-2.2 7.6-2 11 .3 2.2-.2 4.5-1.6 6.4-2.8 3.7-8.1 4.4-11.8 1.6s-4.4-8.1-1.6-11.8c1.4-1.9 3.4-3 5.6-3.2 3.4-.8 7.3-1 10.3-4.9z" fill="url(#9df7ab9a-e579-461c-bd9a-85b212c7cd73)" fill-rule="evenodd"/>
    </g>
</svg>
