<?xml version="1.0" encoding="UTF-8"?>
<svg data-bbox="0 0 529.96 117.72" viewBox="0 0 529.96 129.26" xmlns="http://www.w3.org/2000/svg" data-type="ugc">
    <g>
        <defs>
            <linearGradient gradientUnits="userSpaceOnUse" gradientTransform="matrix(1 0 0 -1 0 178.32)" y2="148.98" x2="88.24" y1="90.68" x1="29.34" id="808cc072-ec72-43ff-a260-1b1fa5b71795">
                <stop stop-color="#eb207d" offset="0"/>
                <stop stop-color="#f05334" offset=".6"/>
                <stop stop-color="#f17f35" offset="1"/>
            </linearGradient>
        </defs>
        <path d="M81.46 27.26c-4.8.6-7.8-2-10.7-3.8-1.7-1.3-3.9-2-6.2-1.7-1.8.2-3.4 1-4.6 2.2-2.5 1.7-3.9 4.8-3.5 8 .6 4.6 4.8 7.8 9.4 7.2 1.8-.2 3.4-1 4.6-2.2.8-.5 1.4-1.2 2-2 1.1-1.2 2.1-2.5 3.4-3.6 1.3-1 2.9-1.7 4.9-2 5.1-.7 7.9 2.4 11 4.3 1.6 1 3.6 1.5 5.6 1.2 1.8-.2 3.4-1 4.6-2.2.5-.3.9-.7 1.3-1.1.7-.6 1.2-1.4 1.6-2.3.6-1.4.9-3 .7-4.6s-.9-3.1-1.8-4.2q-.9-1.2-2.1-1.8c-1.6-1-3.5-1.4-5.5-1.1-1.8.2-3.4 1-4.6 2.2-.5.4-1 .8-1.4 1.2-1.4 1.4-2.5 3.1-4.1 4.5-1.2.9-2.6 1.5-4.5 1.8zm14.5 26c4.1 3.1 8.1 1.8 11.7 1.7 1.9 0 3.9.5 5.5 1.7s2.6 2.9 3.1 4.7c.3.9.3 1.8.2 2.8-.1 1.5-.7 3-1.7 4.3s-2.3 2.2-3.7 2.8c-.9.4-1.8.6-2.7.5-1.9 0-3.7-.5-5.3-1.7-1.6-1.3-2.7-3-3.1-4.9-.9-3.5-.7-7.7-4.8-10.8-3.8-2.9-7.6-2.2-11-2-2.2.3-4.5-.2-6.4-1.6-3.7-2.8-4.4-8.1-1.6-11.8s8.1-4.4 11.8-1.6c1.9 1.4 3 3.4 3.2 5.6.8 3.4 1 7.3 4.9 10.3zm-6.3 28.8c-.6-4.8 2-7.8 3.8-10.7 1.3-1.7 2-3.9 1.7-6.2-.6-4.6-4.8-7.8-9.4-7.2s-7.8 4.8-7.2 9.4c.3 2.4 1.6 4.4 3.4 5.7 2.5 2.3 5.7 4.5 6.4 9.2.7 5.1-2.4 7.9-4.3 11-1 1.6-1.5 3.6-1.2 5.6s1.2 3.7 2.6 5c.6.7 1.4 1.2 2.3 1.6 1.4.6 3 .9 4.6.7s3.1-.9 4.2-1.9q1.2-.9 1.8-2.1c1-1.6 1.4-3.5 1.1-5.5s-1.3-3.8-2.7-5.1c-2.6-2.5-6.3-4.4-7-9.5zm-25.4 15.1c-3.1 4.1-1.8 8.1-1.7 11.7 0 1.9-.5 3.9-1.7 5.5s-2.9 2.6-4.7 3.1c-.9.3-1.8.3-2.8.2-1.5-.1-3-.7-4.3-1.7s-2.2-2.3-2.8-3.7c-.4-.9-.6-1.8-.5-2.7 0-1.9.5-3.7 1.7-5.3 1.3-1.6 3-2.7 4.9-3.1 3.5-.9 7.7-.7 10.8-4.8 2.9-3.8 2.2-7.6 2-11-.3-2.2.2-4.5 1.6-6.4 2.8-3.7 8.1-4.4 11.8-1.6s4.4 8.1 1.6 11.8c-1.4 1.9-3.4 3-5.6 3.2-3.4.8-7.3 1.1-10.3 4.9zm-27.7-7.2c4.8-.6 7.8 2 10.7 3.8 1.7 1.3 3.9 2 6.2 1.7 4.6-.6 7.8-4.8 7.2-9.4s-4.8-7.8-9.4-7.2c-2.4.3-4.4 1.6-5.7 3.4-2.3 2.5-4.5 5.7-9.2 6.4-5.1.7-7.9-2.4-11-4.3-1.6-1-3.6-1.5-5.6-1.2s-3.7 1.2-5 2.5c-.7.6-1.2 1.4-1.6 2.3-.6 1.4-.9 3-.7 4.6s.9 3.1 1.8 4.2q.9 1.2 2.1 1.8c1.6 1 3.5 1.4 5.5 1.1s3.8-1.3 5.1-2.7c2.6-2.6 4.4-6.3 9.5-7zm-16-24.2c-4.1-3.1-8.1-1.8-11.7-1.7-1.9 0-3.9-.5-5.5-1.7s-2.6-2.9-3.1-4.7c-.3-.9-.3-1.8-.2-2.8.1-1.5.7-3 1.7-4.3s2.3-2.2 3.7-2.8c.9-.4 1.8-.6 2.7-.5 1.9 0 3.7.5 5.3 1.7 1.6 1.3 2.7 3 3.1 4.9.9 3.5.7 7.7 4.8 10.8 3.8 2.9 7.6 2.2 11 2 2.2-.3 4.5.2 6.4 1.6 3.7 2.8 4.4 8.1 1.6 11.8s-8.1 4.4-11.8 1.6c-1.9-1.4-3-3.4-3.2-5.6-.8-3.4-1-7.3-4.9-10.3zm6-29.4c.6 4.8-2 7.8-3.8 10.7-1.3 1.7-2 3.9-1.7 6.2.6 4.6 4.8 7.8 9.4 7.2s7.8-4.8 7.2-9.4c-.3-2.4-1.6-4.4-3.4-5.7-2.5-2.3-5.7-4.5-6.4-9.2-.7-5.1 2.4-7.9 4.3-11 1-1.6 1.5-3.6 1.2-5.6s-1.2-3.7-2.6-5c-.6-.7-1.4-1.2-2.3-1.6-1.4-.6-3-.9-4.6-.7s-3.1.9-4.2 1.8q-1.2.9-1.8 2.1c-1 1.6-1.4 3.5-1.1 5.5s1.3 3.8 2.7 5.1c2.6 2.5 6.3 4.4 7 9.5zm25.1-15.8c3.1-4.1 1.8-8.1 1.7-11.7 0-1.9.5-3.9 1.7-5.5s2.9-2.6 4.7-3.1c.9-.3 1.8-.3 2.8-.2 1.5.1 3 .7 4.3 1.7s2.2 2.3 2.8 3.7c.4.9.6 1.8.5 2.7 0 1.9-.5 3.7-1.7 5.3-1.3 1.6-3 2.7-4.9 3.1-3.5.9-7.7.7-10.8 4.8-2.9 3.8-2.2 7.6-2 11 .3 2.2-.2 4.5-1.6 6.4-2.8 3.7-8.1 4.4-11.8 1.6s-4.4-8.1-1.6-11.8c1.4-1.9 3.4-3 5.6-3.2 3.4-.8 7.3-1 10.3-4.9z" fill="url(#808cc072-ec72-43ff-a260-1b1fa5b71795)" fill-rule="evenodd"/>
        <path d="m161.56 76.76-7.9-11.3h-10.2v11.3h-7.2v-38.6h15.9c3.3 0 6.3.6 8.7 1.7 2.5 1.1 4.4 2.7 5.7 4.7 1.3 2.1 2 4.5 2 7.3s-.7 5.4-2.1 7.5-3.4 3.7-6.1 4.7l8.9 12.7zm-2.6-30.6c-1.6-1.3-4-2-7.1-2h-8.4v15.4h8.4c3.1 0 5.5-.7 7.1-2q2.4-1.95 2.4-5.7c0-3.75-.8-4.4-2.4-5.7" fill="#4e4f4f"/>
        <path d="M177.16 31.66h5v55.8h-5z" fill="#4e4f4f"/>
        <path d="M196.86 76.06c-2.8-.8-5-2-6.6-3.4l2.5-5.6c1.6 1.3 3.5 2.3 5.8 3.1s4.6 1.2 6.9 1.2c3.45 0 5-.5 6.4-1.4q2.1-1.35 2.1-3.6c0-2.25-.4-2-1.2-2.7s-1.8-1.3-3-1.7-2.9-.9-5-1.4c-2.9-.7-5.3-1.4-7.1-2.1s-3.4-1.8-4.7-3.3-2-3.5-2-6 .6-4.1 1.7-5.8c1.2-1.7 2.9-3.1 5.2-4.2 2.3-1 5.2-1.5 8.6-1.5s4.7.3 7 .9 4.2 1.4 5.9 2.5l-2.3 5.6c-1.7-1-3.5-1.7-5.3-2.3s-3.6-.8-5.4-.8c-2.8 0-4.9.5-6.3 1.4-1.4 1-2.1 2.2-2.1 3.8s.4 2 1.2 2.7 1.8 1.3 3 1.7 2.9.9 5 1.4c2.9.7 5.2 1.4 7.1 2.1 1.8.7 3.4 1.8 4.7 3.3s2 3.5 2 6-.6 4.1-1.7 5.8c-1.2 1.7-2.9 3.1-5.3 4.1s-5.2 1.5-8.6 1.5-5.9-.4-8.6-1.3z" fill="#4e4f4f"/>
        <path d="M249.36 74.76c-3.2-1.7-5.6-4.1-7.4-7.1q-2.7-4.5-2.7-10.2c0-5.7.9-7.1 2.7-10.2 1.8-3 4.3-5.4 7.4-7.1s6.7-2.6 10.7-2.6 7.5.9 10.6 2.6 5.6 4.1 7.5 7.1q2.7 4.5 2.7 10.2c0 5.7-.9 7.2-2.7 10.2s-4.3 5.4-7.5 7.1-6.7 2.6-10.6 2.6-7.5-.9-10.7-2.6m17.6-5.5c2.1-1.2 3.7-2.8 4.9-4.9s1.8-4.4 1.8-7-.6-4.9-1.8-7-2.8-3.7-4.9-4.9-4.4-1.7-7-1.7-4.9.6-7 1.7c-2.1 1.2-3.7 2.8-4.9 4.9s-1.8 4.4-1.8 7 .6 4.9 1.8 7 2.8 3.7 4.9 4.9 4.4 1.7 7 1.7 4.9-.6 7-1.7" fill="#4e4f4f"/>
        <path d="M312.96 50.16c2.2 2.2 3.4 5.4 3.4 9.7v16.9h-6.9v-16c0-2.6-.6-4.5-1.8-5.8s-2.9-2-5.2-2-4.5.8-6 2.3-2.2 3.7-2.2 6.6v14.9h-6.9v-29.5h6.6v3.8c1.1-1.4 2.6-2.4 4.3-3.1s3.7-1 5.8-1c3.7 0 6.7 1.1 8.9 3.3z" fill="#4e4f4f"/>
        <path d="M329.56 75.16q-3.6-1.95-5.7-5.4c-2.1-3.45-2-4.9-2-7.8s.7-5.5 2-7.8c1.4-2.3 3.2-4.1 5.7-5.4 2.4-1.3 5.2-1.9 8.2-1.9s5.5.6 7.6 1.8c2.2 1.2 3.8 2.9 4.9 5.1l-5.3 3.1c-.8-1.4-1.9-2.4-3.2-3.1s-2.7-1-4.2-1c-2.6 0-4.7.8-6.4 2.5s-2.5 3.9-2.5 6.7.8 5 2.5 6.7 3.8 2.5 6.4 2.5 2.9-.3 4.2-1 2.3-1.7 3.2-3.1l5.3 3.1c-1.1 2.2-2.8 3.9-5 5.1s-4.7 1.8-7.6 1.8-5.8-.6-8.2-1.9z" fill="#4e4f4f"/>
        <path d="M360.56 75.16c-2.4-1.3-4.3-3.1-5.6-5.4s-2-4.9-2-7.8.7-5.5 2-7.8 3.2-4.1 5.6-5.4 5.1-1.9 8.1-1.9 5.7.6 8.1 1.9 4.3 3.1 5.6 5.4 2 4.9 2 7.8-.7 5.5-2 7.8-3.2 4.1-5.6 5.4-5.1 1.9-8.1 1.9-5.7-.6-8.1-1.9m14.4-6.5c1.7-1.7 2.5-3.9 2.5-6.7s-.8-5-2.5-6.7-3.8-2.5-6.3-2.5-4.6.8-6.3 2.5c-1.6 1.7-2.5 3.9-2.5 6.7s.8 5 2.5 6.7c1.6 1.7 3.7 2.5 6.3 2.5s4.6-.8 6.3-2.5" fill="#4e4f4f"/>
        <path d="M390.16 35.76h6.9v40.9h-6.9z" fill="#4e4f4f"/>
        <path d="M410.66 75.16c-2.4-1.3-4.3-3.1-5.6-5.4s-2-4.9-2-7.8.7-5.5 2-7.8 3.2-4.1 5.6-5.4 5.1-1.9 8.1-1.9 5.7.6 8.1 1.9 4.3 3.1 5.6 5.4 2 4.9 2 7.8-.7 5.5-2 7.8-3.2 4.1-5.6 5.4-5.1 1.9-8.1 1.9-5.7-.6-8.1-1.9m14.3-6.5c1.7-1.7 2.5-3.9 2.5-6.7s-.8-5-2.5-6.7-3.8-2.5-6.3-2.5-4.6.8-6.3 2.5c-1.6 1.7-2.5 3.9-2.5 6.7s.8 5 2.5 6.7c1.6 1.7 3.7 2.5 6.3 2.5s4.6-.8 6.3-2.5" fill="#4e4f4f"/>
        <path d="M469.76 47.26v25q0 15.6-15.9 15.6c-3.4 0-5.5-.4-8.1-1.1-2.5-.7-4.6-1.8-6.3-3.1l3.1-5.2c1.3 1.1 2.9 1.9 4.9 2.6 2 .6 4 1 6 1 3.2 0 5.6-.7 7.1-2.2s2.3-3.7 2.3-6.7v-1.5c-1.2 1.3-2.6 2.3-4.3 2.9s-3.6 1-5.6 1-5.3-.6-7.6-1.8-4-2.9-5.4-5-2-4.7-2-7.5.7-5.3 2-7.4 3.1-3.8 5.4-5 4.8-1.8 7.6-1.8 4.1.3 5.8 1 3.2 1.8 4.4 3.2v-3.9h6.6zm-9.3 20c1.7-1.6 2.5-3.6 2.5-6.1s-.8-4.5-2.5-6-3.8-2.3-6.4-2.3-4.8.8-6.5 2.3-2.5 3.6-2.5 6 .8 4.5 2.5 6.1 3.8 2.3 6.5 2.3 4.8-.8 6.4-2.3" fill="#4e4f4f"/>
        <path d="m507.06 47.26-13.8 31.8c-1.3 3.2-2.9 5.5-4.7 6.8s-4.1 2-6.7 2-2.9-.2-4.4-.7c-1.4-.5-2.6-1.1-3.5-2l2.8-5.1c.7.6 1.4 1.1 2.3 1.5s1.8.6 2.7.6c1.35 0 2.2-.3 3-.9s1.5-1.7 2.2-3.1l.5-1.2-12.9-29.6h7.2l9.3 21.8 9.3-21.8h6.6z" fill="#4e4f4f"/>
        <path d="M508.66 44.16h8.7v1.7h-3.3v7.8h-2.1v-7.8h-3.3zm19.4 9.5v-6l-3.2 4.9h-1l-3.2-4.8v5.8h-2v-9.4h1.7l4 6 3.9-6h1.7v9.4h-2z" fill="#4e4f4f"/>
    </g>
</svg>
