<?xml version="1.0" encoding="UTF-8"?><svg id="a" xmlns="http://www.w3.org/2000/svg" xmlns:xlink="http://www.w3.org/1999/xlink" viewBox="0 0 2852.8302 741.7358"><defs><linearGradient id="b" x1="-1212.6279" y1="-423.9024" x2="-824.7518" y2="-919.459" gradientTransform="translate(1447.4824 -156.6022) rotate(-59)" gradientUnits="userSpaceOnUse"><stop offset="0" stop-color="#c0d4e2"/><stop offset=".4475" stop-color="#b9dbe7"/><stop offset=".5308" stop-color="#b8dce8"/><stop offset="1" stop-color="#c4f5fb"/></linearGradient><linearGradient id="c" x1="-336.1523" y1="392.7468" x2="-233.9106" y2="-21.5871" gradientTransform="translate(505.2037 79.5446) rotate(-30)" gradientUnits="userSpaceOnUse"><stop offset=".0029" stop-color="#54cfe4"/><stop offset="1" stop-color="#156789"/></linearGradient></defs><path d="M847.6248,398.6345c0-82.8693,50.4905-137.2166,132.2058-137.2166,63.9801,0,109.0772,40.0863,116.0164,98.673h-58.5867c-6.9392-30.0647-28.522-49.7222-60.5151-49.7222-43.94,0-70.151,36.2326-70.151,88.2658,0,51.6506,25.8253,88.2658,69.3797,88.2658,32.7645,0,54.3473-19.6575,61.2865-49.7222h58.201c-6.5535,58.5867-53.1903,98.673-119.0988,98.673-80.1726,0-128.7378-54.3473-128.7378-137.2166Z" fill="#1e293b"/><path d="M1141.842,263.7289h181.1597v49.7222h-123.3444v60.5151h100.2158v47.4081h-100.2158v62.4436h127.5838v49.7222h-185.3992v-269.8112Z" fill="#1e293b"/><path d="M1376.3987,533.5401v-269.8112h57.8154v220.089h107.1519v49.7222h-164.9672Z" fill="#1e293b"/><path d="M1578.2989,533.5401v-269.8112h57.8154v220.089h107.1519v49.7222h-164.9672Z" fill="#1e293b"/><path d="M1730.2455,263.7289h213.9212v49.7222h-78.2442v220.089h-57.8184v-220.089h-77.8585v-49.7222Z" fill="#1e293b"/><path d="M1928.6776,533.5401l98.673-269.8112h69.3797l97.9017,269.8112h-62.0548l-20.8145-58.9724h-102.5299l-20.8145,58.9724h-59.7407ZM2024.6509,427.9279h71.3081l-35.8469-102.5268-35.4612,102.5268Z" fill="#1e293b"/><path d="M2308.2355,395.5521l-83.6407-131.8232h68.6083l52.4189,85.5691,54.3473-85.5691h64.7546l-83.6407,131.0519,87.8832,138.7593h-68.9971l-56.6583-92.5052-58.5898,92.5052h-64.3689l87.8832-137.988Z" fill="#1e293b"/><path d="M2504.3567,263.7289h57.8154v269.8112h-57.8154v-269.8112Z" fill="#1e293b"/><path d="M2666.7877,445.66c1.9284,26.2079,22.7429,44.3257,55.89,44.3257,26.5967,0,46.2541-11.5643,46.2541-32.7645,0-22.7398-21.9716-27.3649-67.0687-36.2295-45.4797-8.4819-85.566-23.1286-85.566-77.8616,0-47.7938,39.6975-81.7123,100.5984-81.7123,63.5975,0,104.0726,33.1471,104.8409,84.7977h-56.6583c-2.6998-22.7429-20.0432-38.5436-48.1826-38.5436-24.6652,0-42.3973,10.4042-42.3973,31.2187,0,21.9716,21.2002,26.5967,65.9085,35.0755,46.2541,8.4788,87.1118,22.3572,86.7261,76.7045-.3857,50.4905-42.0116,85.1803-105.2265,85.1803-68.6083,0-111.3913-36.2295-111.777-90.9625l56.6583.7714Z" fill="#1e293b"/><circle cx="349.3804" cy="376.6645" r="314.6385" fill="url(#b)"/><circle cx="349.3804" cy="376.6645" r="221.254" fill="url(#c)"/><circle cx="349.3804" cy="376.6645" r="79.6125" fill="#fff"/></svg>