<?xml version="1.0" encoding="UTF-8"?>
<svg data-bbox="160.69 105.849 933.132 1993.211" viewBox="0 0 1254 2210" height="2210" width="1254" xmlns="http://www.w3.org/2000/svg" data-type="ugc">
    <g>
        <path d="M667.874 374.038s116.71 221.45-206.057 496.513C223.893 1073.31 153.536 1156.83 161.252 1304.42c13.934 266.54 294.7 453.61 294.7 453.61s-89.012-193.87-72.848-433.74c.477-7.08 314.984 64.06 314.894 66.71-.217 6.38-40.766 51-43 51s-199.046-41.56-199.046-41.56 21.936 84.17 125.827 139.06c2.755 1.46-93.221 112.69-89.4 241.71 5.787 195.53 178.808 317.85 178.808 317.85s-143.628-183.48-39.735-370.83c123.366-222.46 430.15-306.29 460.27-556.25 15.43-128.05-51.65-304.489-284.773-490.02-5.167-4.111 85.133 188.592 63.051 406.04-.141 1.39-306.911-67.57-315-72-2.007-1.1 44.394-52.883 47-54s196 45 196 45-26.046-72.728-121-141c-6.631-4.768 205.509-236.148-9.126-491.962ZM499 1077c-5.684 2.56-34.322 37.1-42 49-1.665 2.58 368.649 87.49 372 86s25.928-54.75 25-57c-.965-2.34-352.1-79.31-355-78Zm-80 115c-6.154 4.09-21.07 49.68-22 56-.162 1.11 345.9 88.34 349 86 4.121-3.11 42.745-52.28 42-56s-365.96-88.02-369-86Z" stroke-width="6.623" fill="#ff5757" stroke="#ff5757" fill-rule="evenodd"/>
        <path d="M654.629 105.849S492.807 217.7 502.311 364.105s65.058 134.867 69.537 241.7c.046 1.113 71.5-98.183 56.291-248.324-3.283-32.4-50.764-155.807 26.49-251.632Z" stroke-width="8.311" fill="#ff5757" stroke="#ff5757" fill-rule="evenodd"/>
    </g>
</svg>
