<?xml version="1.0" encoding="UTF-8"?>
<svg data-bbox="-131.67 -162.2 4404.1 1348.97" viewBox="0 0 3867 827.58" xmlns="http://www.w3.org/2000/svg" data-type="ugc">
    <g>
        <path fill="none" d="M4272.43-162.2v587.93H-105.05V-162.2z"/>
        <path d="M526.6 632.18h.15l36.22-89.57h16.81v108.21h-11.01v-94h-.31l-39.13 94h-5.81l-39.13-94h-.31v94h-11V542.61h16.81l36.68 89.57Z" fill="#6e6e6e"/>
        <path d="M660 604.66c0-12.38-6.73-18.49-19.11-18.49-8.41 0-16.2 3.36-21.25 8.41l-5.81-6.88c5.81-5.81 15.9-10.24 28.12-10.24 15.44 0 27.82 8.56 27.82 25.98v31.33c0 5.5.46 12.07 1.22 16.05h-9.32c-.61-3.52-1.07-7.8-1.07-11.62h-.31c-6.57 9.48-14.52 13.45-25.98 13.45-10.85 0-24.76-5.81-24.76-21.7 0-22.01 24.3-24 50.44-24v-2.29Zm-3.06 10.4c-16.97 0-36.68 1.83-36.68 15.44 0 10.24 8.71 13.6 16.81 13.6 14.67 0 22.93-11 22.93-23.69v-5.35z" fill="#6e6e6e"/>
        <path d="M713.27 611.54h.46l33.01-32.25h14.98L725.65 612l39.74 38.82h-15.28l-36.38-37.6h-.46v37.6h-10.39V535.27h10.39z" fill="#6e6e6e"/>
        <path d="M794.09 559.12c-3.67 0-7.34-3.06-7.34-7.34s3.67-7.34 7.34-7.34 7.34 3.06 7.34 7.34-3.67 7.34-7.34 7.34m5.2 91.7H788.9v-71.53h10.39z" fill="#6e6e6e"/>
        <path d="M842.06 579.29c.31 3.82.61 9.17.61 12.23h.31c3.97-8.25 14.37-14.06 24.46-14.06 18.19 0 27.21 11.77 27.21 29.5v43.87h-10.39v-39.59c0-14.98-4.43-25.07-19.41-25.07-11 0-21.7 8.86-21.7 27.97v36.68h-10.39v-55.79c0-3.82-.15-10.85-.61-15.74h9.94Z" fill="#6e6e6e"/>
        <path d="M931.78 665.19c5.66 7.34 16.51 13.14 27.36 13.14 20.48 0 27.97-12.69 27.97-28.12v-13.45h-.31c-5.5 8.86-16.66 14.06-27.05 14.06-22.32 0-36.99-15.44-36.99-36.38s14.67-36.99 36.99-36.99c10.39 0 21.4 5.04 27.05 14.21h.31v-12.38h10.39v70.92c0 15.59-7.18 37.29-38.82 37.29-13.14 0-25.98-5.5-34.39-14.37l7.49-7.95Zm29.04-23.23c16.05 0 27.51-11.31 27.51-27.82 0-14.98-11.46-27.97-27.51-27.97-17.27 0-27.05 12.99-27.05 27.97s9.78 27.82 27.05 27.82" fill="#6e6e6e"/>
        <path d="M1136.59 560.03c-4.58-6.57-12.07-10.85-22.32-10.85s-23.08 6.42-23.08 20.33 11.46 17.27 23.54 21.25c15.28 5.04 32.1 9.93 32.1 31.64s-18.19 31.18-35.31 31.18c-13.15 0-26.29-5.35-34.08-16.05l9.48-7.03c4.74 7.64 13.45 13.6 24.76 13.6s24-7.03 24-20.94c0-15.13-12.69-18.95-26.44-23.23-14.37-4.43-29.04-10.7-29.04-30.26 0-20.94 18.65-29.8 34.54-29.8 14.52 0 25.37 6.11 30.57 13.14l-8.71 7.03Z" fill="#6e6e6e"/>
        <path d="M1228.07 595.65c-3.36-5.5-10.55-9.48-18.34-9.48-16.66 0-27.36 12.53-27.36 28.89s10.55 28.74 27.21 28.74c9.02 0 15.28-3.82 19.41-9.32l7.8 5.81c-6.11 7.49-14.83 12.38-27.21 12.38-23.08 0-38.21-16.05-38.21-37.6s15.13-37.6 38.21-37.6c9.63 0 20.48 4.13 26.59 12.38l-8.1 5.81Z" fill="#6e6e6e"/>
        <path d="M1265.96 559.12c-3.67 0-7.34-3.06-7.34-7.34s3.67-7.34 7.34-7.34 7.34 3.06 7.34 7.34-3.67 7.34-7.34 7.34m5.2 91.7h-10.39v-71.53h10.39z" fill="#6e6e6e"/>
        <path d="M1369.79 617.81h-59.3c.31 14.37 11.46 25.98 26.14 25.98 10.7 0 18.95-5.96 22.93-12.38l7.8 6.11c-8.41 10.7-18.95 15.13-30.72 15.13-21.25 0-36.99-16.05-36.99-37.6s15.74-37.6 36.07-37.6c22.47 0 34.24 15.9 34.24 35.46 0 1.38 0 3.06-.15 4.89Zm-10.39-8.26c-.61-13.45-8.86-23.39-23.69-23.39-13.91 0-24.15 11.16-25.07 23.39z" fill="#6e6e6e"/>
        <path d="M1408 579.29c.31 3.82.61 9.17.61 12.23h.31c3.97-8.25 14.37-14.06 24.46-14.06 18.19 0 27.21 11.77 27.21 29.5v43.87h-10.39v-39.59c0-14.98-4.43-25.07-19.41-25.07-11 0-21.7 8.86-21.7 27.97v36.68h-10.39v-55.79c0-3.82-.15-10.85-.61-15.74h9.94Z" fill="#6e6e6e"/>
        <path d="M1545.7 595.65c-3.36-5.5-10.55-9.48-18.34-9.48-16.66 0-27.36 12.53-27.36 28.89s10.55 28.74 27.21 28.74c9.02 0 15.28-3.82 19.41-9.32l7.8 5.81c-6.11 7.49-14.83 12.38-27.21 12.38-23.08 0-38.21-16.05-38.21-37.6s15.13-37.6 38.21-37.6c9.63 0 20.48 4.13 26.59 12.38l-8.1 5.81Z" fill="#6e6e6e"/>
        <path d="M1642.45 617.81h-59.3c.31 14.37 11.46 25.98 26.14 25.98 10.7 0 18.95-5.96 22.93-12.38l7.8 6.11c-8.41 10.7-18.95 15.13-30.72 15.13-21.25 0-36.99-16.05-36.99-37.6s15.74-37.6 36.07-37.6c22.47 0 34.24 15.9 34.24 35.46 0 1.38 0 3.06-.15 4.89Zm-10.39-8.26c-.61-13.45-8.86-23.39-23.69-23.39-13.91 0-24.15 11.16-25.07 23.39z" fill="#6e6e6e"/>
        <path d="M1815.63 633.4c-7.18 10.85-21.09 20.18-40.5 20.18-32.71 0-56.4-24-56.4-56.86s24.15-56.86 56.4-56.86c15.9 0 31.03 6.57 38.52 17.12l-9.17 6.73c-4.58-7.03-15.44-14.21-29.19-14.21-27.97 0-44.94 22.01-44.94 47.23s17.12 47.23 44.94 47.23c12.38 0 24.3-4.89 31.79-16.05l8.56 5.5Z" fill="#6e6e6e"/>
        <path d="M1851.04 650.82h-10.39V535.27h10.39z" fill="#6e6e6e"/>
        <path d="M1889.8 559.12c-3.67 0-7.34-3.06-7.34-7.34s3.67-7.34 7.34-7.34 7.34 3.06 7.34 7.34-3.67 7.34-7.34 7.34m5.2 91.7h-10.39v-71.53H1895z" fill="#6e6e6e"/>
        <path d="M1980.18 595.65c-3.36-5.5-10.55-9.48-18.34-9.48-16.66 0-27.36 12.53-27.36 28.89s10.55 28.74 27.21 28.74c9.02 0 15.28-3.82 19.41-9.32l7.8 5.81c-6.11 7.49-14.83 12.38-27.21 12.38-23.08 0-38.21-16.05-38.21-37.6s15.13-37.6 38.21-37.6c9.63 0 20.48 4.13 26.59 12.38l-8.1 5.81Z" fill="#6e6e6e"/>
        <path d="M2023.35 611.54h.46l33.01-32.25h14.98L2035.73 612l39.74 38.82h-15.28l-36.38-37.6h-.46v37.6h-10.39V535.27h10.39z" fill="#6e6e6e"/>
        <path fill="none" d="M4245.81 598.84v587.93H-131.67V598.84z"/>
        <path d="m499.29 320.27 53.13 106.04h14.43l53.35-106.04v119.37H646V286.81h-40.01l-46.13 95.98-46.13-95.98H473.5v152.83h25.8V320.27Zm210.13 3.06h-24.49v116.31h24.49zm-12.03-18.59c4.22 0 7.87-1.53 10.93-4.59s4.59-6.71 4.59-10.93c0-4.23-1.53-7.87-4.59-10.93s-6.71-4.59-10.93-4.59-7.88 1.53-10.94 4.59-4.59 6.7-4.59 10.93 1.53 7.87 4.59 10.93 6.71 4.59 10.94 4.59m130.54 18.59v17.27q-14.43-19.02-37.5-19.02c-15.38 0-28.02 5.39-37.94 16.18-9.91 10.79-14.87 24.2-14.87 40.23 0 16.04 4.96 29.45 14.87 40.23 9.91 10.79 22.6 16.18 38.05 16.18 8.45 0 16.07-2.04 22.85-6.12a41.6 41.6 0 0 0 15.63-16.4v14.87c0 13.12-3.39 22.66-10.17 28.64-6.78 5.97-15.96 8.96-27.55 8.96q-17.385 0-34.44-12.9l-11.59 18.58c14.14 10.93 29.95 16.4 47.45 16.4 17.49 0 31.81-5.14 42.96-15.41 11.15-10.28 16.73-25.69 16.73-46.24V323.33h-24.49Zm-57.4 28.64c5.91-7.14 13.81-10.71 23.72-10.71s18 3.46 24.27 10.39c6.26 6.92 9.4 15.38 9.4 25.36 0 9.99-3.1 18.33-9.29 25.04-6.2 6.7-14.29 10.06-24.27 10.06s-17.93-3.46-23.83-10.39c-5.9-6.92-8.85-15.16-8.86-24.71 0-9.55 2.95-17.89 8.86-25.03Zm151.2.11c6.26-5.61 13.63-8.42 22.08-8.42 17.78 0 26.67 10.71 26.68 32.14v63.84h24.49v-71.28c0-15.16-4.04-26.75-12.13-34.76s-18.69-12.02-31.81-12.02a44.93 44.93 0 0 0-22.85 6.12c-7.07 4.08-12.36 9.69-15.85 16.84v-66.9h-24.49v162.01h24.49v-62.97c0-10.79 3.13-18.98 9.4-24.59Zm168.14-9.08v-19.68h-30.61v-36.51h-24.49v36.51h-14.65V343h14.65v58.38q0 18.36 11.04 29.19c7.36 7.22 16.25 10.82 26.68 10.82 10.42 0 19.93-3.86 28.53-11.59l-10.06-17.27c-4.81 5.1-9.84 7.66-15.09 7.65q-7.875 0-12.24-4.92c-2.92-3.28-4.38-7.69-4.37-13.23V343zm66.04 136.43c6.26-4.37 11.08-10.35 14.43-17.93l56.41-138.18h-26.24l-34.76 85.7-34.77-85.7h-26.24c31.34 77.69 47.01 117.55 47.01 119.59 0 4.67-1.71 8.97-5.14 12.9s-7.87 5.9-13.34 5.9-10.75-2.41-15.85-7.22l-11.15 19.9c8.6 7.73 18.22 11.59 28.86 11.59 7.44.04 14.71-2.25 20.77-6.56Zm222.58-168.57c7.72 2.62 13.85 5.98 18.37 10.06l13.78-19.46q-10.5-8.745-24.93-13.56a91.6 91.6 0 0 0-29.08-4.81c-15.16 0-27.88 3.83-38.16 11.48-10.27 7.65-15.41 18.55-15.41 32.69s4.52 24.63 13.56 31.48c4.68 3.74 9.92 6.73 15.52 8.86 5.83 2.26 14.35 4.74 25.58 7.43 11.22 2.7 19.13 5.69 23.72 8.96 4.59 3.28 6.89 7.87 6.89 13.78 0 5.9-2.44 10.64-7.33 14.21s-11.48 5.36-19.79 5.36c-16.62 0-32.65-6.71-48.1-20.12l-16.18 19.46c18.51 16.47 39.72 24.71 63.63 24.71 16.32 0 29.52-4.15 39.58-12.46s15.09-19.13 15.09-32.47-3.97-23.43-11.92-30.28-19.75-12.17-35.42-15.96-25.91-7.32-30.72-10.6-7.22-8.01-7.22-14.21 2.41-10.82 7.22-13.88 10.97-4.59 18.47-4.59c7.51 0 15.12 1.31 22.85 3.94Zm89.65 32.8v-20.33h-24.49v158.73h24.49v-59.9c11.66 12.83 24.82 19.24 39.47 19.24s27.48-5.61 38.48-16.84c11.01-11.22 16.51-25.8 16.51-43.73s-5.54-32.28-16.62-43.07-24.42-16.18-40.01-16.18q-23.4 0-37.83 22.08m9.62 10.38c6.7-7.36 14.94-11.04 24.71-11.04 9.76 0 18.15 3.68 25.15 11.04s10.49 16.62 10.49 27.77-3.57 20.22-10.71 27.22-15.53 10.49-25.15 10.49-17.78-3.53-24.49-10.6-10.06-16.14-10.06-27.22 3.35-20.3 10.06-27.66m207.06 10.61c0-14.87-4.34-25.76-13.01-32.69-8.67-6.92-19.86-10.38-33.56-10.38-17.93 0-33.96 5.61-48.1 16.84l10.93 15.3c11.66-7.87 22.89-11.81 33.67-11.81 17.2 0 25.8 7.72 25.8 23.17v4.37h-31.7c-14.43 0-25.87 2.84-34.33 8.53-8.46 5.68-12.68 14.25-12.68 25.69s3.97 20.59 11.92 27.44c7.94 6.85 17.96 10.28 30.07 10.28 16.18 0 29.08-5.76 38.7-17.27v15.52h22.3v-74.99Zm-33.24 49.41c-5.83 4.37-12.64 6.56-20.44 6.56s-13.89-1.5-18.26-4.48-6.56-7.32-6.56-13.01q0-16.605 26.46-16.62h27.55v9.84c0 7.43-2.92 13.34-8.75 17.71m129.67-67.78-.22-24.71c-7.58.15-14.76 2.55-21.54 7.21a50.7 50.7 0 0 0-16.07 17.93v-23.39h-24.49v116.31h24.49v-49.85c0-13.26 3.06-23.83 9.18-31.7s15.23-11.8 27.33-11.81h1.31Zm48.97 60.34 17.71-17.93 34.55 50.94h29.74l-47.45-70.18 44.17-46.13h-31.49l-47.23 49.41v-95.32h-24.49v162.23h24.49zm198.64-6.01c-10.42-10.42-15.64-23.39-15.63-38.92 0-15.52 5.25-28.28 15.74-38.26s23.47-14.97 38.92-14.98c8.75 0 16.36 1.38 22.85 4.15s13.37 7.65 20.66 14.65l16.4-17.93c-15.89-17.49-35.68-26.24-59.36-26.24-23.69 0-43.29 7.58-58.82 22.74-15.52 15.16-23.29 34.11-23.29 56.84s7.62 41.54 22.85 56.41 34.4 22.3 57.51 22.3 42.75-8.96 58.93-26.89L2109 397.43c-7 6.56-13.7 11.33-20.12 14.32-6.41 2.99-14.07 4.48-22.96 4.48-14.29 0-26.64-5.21-37.06-15.63Zm138.3-19.13c0-11.22 3.46-20.37 10.39-27.44 6.92-7.07 15.7-10.6 26.35-10.6 10.64 0 19.42 3.53 26.35 10.6 6.92 7.07 10.38 16.22 10.38 27.44 0 11.23-3.46 20.37-10.38 27.44s-15.71 10.6-26.35 10.6-19.42-3.53-26.35-10.6-10.39-16.22-10.39-27.44m97.96 0c0-16.76-5.83-30.93-17.49-42.52s-26.24-17.38-43.73-17.38-32.07 5.79-43.73 17.38-17.49 25.76-17.49 42.52 5.83 30.94 17.49 42.53 26.24 17.38 43.73 17.38 32.07-5.79 43.73-17.38 17.49-25.76 17.49-42.53m61.66-29.4c6.26-5.61 13.63-8.42 22.08-8.42s14.65 2.59 18.59 7.76c3.93 5.18 5.9 13.3 5.9 24.38v63.84h24.49v-64.72c.29-10.2 3.53-17.96 9.73-23.28 6.19-5.32 13.44-7.98 21.74-7.98 17.81 0 26.7 10.71 26.7 32.14v63.84h24.49v-71.28c0-15.16-4.05-26.75-12.14-34.76-8.1-8.01-18.71-12.02-31.81-12.02-17.21 0-31.57 7.58-43.09 22.74-6.56-15.16-19.02-22.74-37.39-22.74a44.93 44.93 0 0 0-22.85 6.12c-7.07 4.08-12.35 9.69-15.85 16.84v-21.21h-24.49v116.31h24.49v-62.97c0-10.79 3.14-18.98 9.4-24.59Zm221.72 0c6.27-5.61 13.61-8.42 22.08-8.42s14.64 2.59 18.59 7.76c3.93 5.18 5.9 13.3 5.9 24.38v63.84h24.49v-64.72c.29-10.2 3.53-17.96 9.73-23.28 6.19-5.32 13.44-7.98 21.74-7.98 17.78 0 26.67 10.71 26.67 32.14v63.84h24.49v-71.28c0-15.16-4.04-26.75-12.12-34.76-8.1-8.01-18.71-12.02-31.84-12.02-17.2 0-31.56 7.58-43.06 22.74-6.56-15.16-19.02-22.74-37.39-22.74a44.9 44.9 0 0 0-22.84 6.12c-7.08 4.08-12.37 9.69-15.87 16.84v-21.21h-24.49v116.31h24.49v-62.97c0-10.79 3.14-18.98 9.41-24.59Zm259.74 58.81c-6.27 5.61-13.63 8.42-22.08 8.42-17.78 0-26.67-10.71-26.67-32.14v-63.84H2735v71.28c0 15.16 4.05 26.75 12.14 34.76 8.08 8.02 18.68 12.03 31.81 12.03 16.13 0 30.97-8.8 38.71-22.96v21.21h24.49V323.34h-24.49v62.97c0 10.79-3.14 18.99-9.41 24.59Zm103.22-58.81c6.27-5.61 13.63-8.42 22.08-8.42 17.78 0 26.67 10.71 26.67 32.14v63.84h24.49v-71.28c0-15.16-4.05-26.75-12.14-34.76-8.08-8.01-18.68-12.02-31.81-12.02a44.11 44.11 0 0 0-38.71 22.96v-21.21h-24.49v116.31h24.49v-62.97c0-10.79 3.14-18.98 9.41-24.59Zm131.85-28.75h-24.49v116.31h24.49zm-12.04-18.59c4.22 0 7.87-1.53 10.94-4.59s4.59-6.7 4.59-10.93-1.52-7.87-4.59-10.93-6.71-4.59-10.94-4.59-7.87 1.53-10.94 4.59-4.59 6.71-4.59 10.93 1.52 7.87 4.59 10.93 6.71 4.59 10.94 4.59m148.04 115.22-14.42-15.74c-9.62 9.92-19.87 14.87-30.73 14.87s-20-3.72-27.43-11.15c-7.45-7.43-11.17-16.51-11.17-27.22s3.76-19.46 11.28-26.24c7.5-6.78 16.35-10.17 26.56-10.17 10.2 0 20.33 4.37 30.39 13.12l14.42-17.71q-18.135-18.15-44.37-18.15c-17.49 0-32.32 5.57-44.5 16.73-12.17 11.15-18.25 25.62-18.25 43.4s5.83 32.18 17.49 43.18c11.64 11.01 25.56 16.51 41.75 16.51 18.51 0 34.84-7.14 48.99-21.43Zm118.71-55.31c0-14.87-4.34-25.76-13.01-32.69q-13.02-10.38-33.57-10.38c-17.91 0-33.94 5.61-48.09 16.84l10.94 15.3c11.67-7.87 22.89-11.81 33.67-11.81 17.2 0 25.8 7.72 25.8 23.17v4.37h-31.7c-14.42 0-25.86 2.84-34.33 8.53s-12.7 14.25-12.69 25.69c0 11.44 3.98 20.59 11.93 27.44 7.92 6.85 17.96 10.28 30.05 10.28 16.18 0 29.08-5.76 38.71-17.27v15.52h22.29zm-33.23 49.41c-5.82 4.37-12.64 6.56-20.45 6.56-7.79 0-13.87-1.49-18.25-4.48-4.38-2.98-6.56-7.32-6.56-13.01q0-16.605 26.46-16.62h27.56v9.84c0 7.43-2.94 13.34-8.76 17.71M3391.61 343v-19.68h-30.6v-36.51h-24.49v36.51h-14.66V343h14.66v58.38q0 18.36 11.04 29.19c7.37 7.21 16.26 10.82 26.67 10.82 10.44 0 19.95-3.86 28.53-11.59l-10.04-17.27c-4.83 5.11-9.83 7.65-15.1 7.65s-9.31-1.64-12.25-4.92q-4.365-4.92-4.35-13.23V343h30.6Zm55.1-19.67h-24.49v116.31h24.49zm-12.01-18.59c4.22 0 7.87-1.53 10.94-4.59 3.04-3.06 4.59-6.7 4.59-10.93s-1.55-7.87-4.59-10.93c-3.07-3.06-6.71-4.59-10.94-4.59-4.25 0-7.89 1.53-10.94 4.59-3.07 3.06-4.59 6.71-4.59 10.93s1.52 7.87 4.59 10.93c3.04 3.06 6.69 4.59 10.94 4.59m64.27 76.74c0-11.22 3.46-20.37 10.38-27.44s15.71-10.6 26.35-10.6c10.62 0 19.4 3.53 26.33 10.6 6.92 7.07 10.39 16.22 10.41 27.44 0 11.23-3.47 20.37-10.41 27.44-6.92 7.07-15.7 10.6-26.33 10.6-10.65 0-19.43-3.53-26.35-10.6s-10.38-16.21-10.38-27.44m97.94 0c0-16.76-5.83-30.93-17.49-42.52-11.64-11.59-26.21-17.38-43.71-17.38-17.49 0-32.07 5.79-43.74 17.38s-17.5 25.76-17.49 42.52c0 16.77 5.83 30.94 17.49 42.53 11.67 11.59 26.25 17.38 43.74 17.38s32.06-5.79 43.71-17.38c11.67-11.59 17.5-25.76 17.49-42.53m61.68-29.4c6.27-5.61 13.61-8.42 22.08-8.42 17.78 0 26.67 10.71 26.67 32.14v63.84h24.49v-71.28c0-15.16-4.05-26.75-12.14-34.76-8.08-8.01-18.68-12.02-31.81-12.02a44.11 44.11 0 0 0-38.71 22.96v-21.21h-24.49v116.31h24.49v-62.97c0-10.79 3.14-18.98 9.41-24.59Zm178.43 28.31q-5.94-3.93-11.04-6.12c-3.44-1.46-6.98-2.77-10.62-3.94-3.65-1.16-7.83-2.33-12.56-3.5-4.75-1.16-8.42-2.4-11.04-3.72-3.8-1.75-5.69-4.52-5.69-8.31 0-4.23 1.81-7.4 5.45-9.51s8.39-3.17 14.21-3.17c11.09 0 21.37 3.13 30.84 9.4l9.18-18.15c-11.96-7.87-24.64-11.8-38.05-11.81-13.4 0-24.29 3.24-32.67 9.73-8.39 6.49-12.59 15.12-12.59 25.91 0 15.3 12.1 26.24 36.29 32.8.89.24 1.77.53 2.62.87 15.47 4.67 23.2 9.92 23.18 15.74 0 3.94-1.6 7.18-4.8 9.73s-7.57 3.83-13.11 3.83c-12.69 0-25.81-5.1-39.36-15.31l-11.83 19.02q10.5 8.31 24.18 12.9c9.1 3.06 17.88 4.59 26.35 4.59 12.53 0 22.81-3.32 30.81-9.95 8.02-6.63 12.04-15.48 12.04-26.56s-3.93-19.24-11.8-24.49Z" fill="#ff5757" fill-rule="evenodd"/>
        <path d="M221.57 116.62s48.1 91.27-84.92 204.64C38.58 404.82 9.59 439.24 12.76 500.07c5.75 109.85 121.46 186.96 121.46 186.96s-36.69-79.9-30.02-178.77c.19-2.92 129.82 26.4 129.78 27.49-.09 2.63-16.8 21.02-17.72 21.02s-82.04-17.13-82.04-17.13 9.04 34.69 51.86 57.31c1.14.6-38.42 46.45-36.85 99.62 2.38 80.59 73.7 131 73.7 131s-59.2-75.62-16.38-152.84c50.85-91.69 177.29-126.24 189.7-229.26 6.36-52.78-21.29-125.49-117.37-201.96-2.13-1.69 35.09 77.73 25.99 167.35-.06.57-126.49-27.85-129.83-29.67-.83-.45 18.3-21.8 19.37-22.26s80.78 18.55 80.78 18.55-10.74-29.97-49.87-58.11c-2.73-1.97 84.7-97.33-3.76-202.76Zm-69.6 289.72c-2.34 1.06-14.14 15.29-17.31 20.2-.68 1.06 151.94 36.06 153.32 35.44s10.69-22.57 10.3-23.49c-.4-.96-145.12-32.69-146.31-32.15M119 453.74c-2.53 1.69-8.68 20.48-9.07 23.08-.07.46 142.56 36.41 143.84 35.44 1.7-1.28 17.62-21.55 17.31-23.08S120.25 452.9 119 453.74" fill="#ff5757" fill-rule="evenodd"/>
        <path d="M216.11 6.08s-66.69 46.1-62.78 106.44c3.92 60.34 26.81 55.59 28.66 99.62.02.46 29.47-40.47 23.2-102.35-1.35-13.35-20.92-64.22 10.92-103.71" fill="#ff5757" fill-rule="evenodd"/>
    </g>
</svg>
