<?xml version="1.0" encoding="UTF-8"?><svg id="a" xmlns="http://www.w3.org/2000/svg" viewBox="0 0 253.2543 104.2219"><path d="M51.0399,35.007c-.0099,10.53-.0099,21.05,0,31.58,0,2-.86,3.52-2.49,4.63-11.24,7.66-22.48,15.32-33.73,22.97-2.54,1.72-5.65,1.17-7.29-1.23-1.61-2.38-.94-5.47,1.61-7.2,10.25-6.99,20.5-13.98,30.77-20.94.6299-.43.9-.86.89-1.64-.02-8.29-.02-16.59,0-24.88,0-.71-.19-1.16-.8-1.57-10.26-6.91-20.49-13.86-30.74-20.77-1.84-1.24-2.88-2.83-2.64-5.09.24-2.28,1.56-3.67,3.7-4.36.06-.02.11-.1.17-.15,0,.6-.56.63-.91.79-3.34,1.49-3.6,6.13-.56,8.28,2.35,1.66,4.76,3.22,7.14,4.83,7.77,5.25,15.52,10.53,23.3199,15.7401,1.13.7599,1.55,1.62,1.55,2.96-.05,7.85-.05,15.7,0,23.55.0099,1.35-.4301,2.25-1.54,2.9901-3.6,2.37-7.13,4.85-10.7,7.2599-6.41,4.34-12.78,8.7401-19.21,13.04-2.03,1.36-2.98,3.47-2.48,5.4.8,3.15,4.26,4.64,7.1201,2.97,2.34-1.38,4.53-3,6.77-4.53,5.86-4.01,11.74-8,17.6-12.01,3.16-2.16,6.34-4.31,9.5-6.47,1.8-1.23,2.63-2.81,2.62-5.03-.06-10.24-.06-20.49,0-30.73.02-2.32-.87-3.94-2.76-5.19-7.9-5.27-15.75-10.62-23.61-15.96-3.17-2.15-6.39-4.22-9.5-6.45-.4901-.35-1.01-.64-1.58-.86-.27-.1-.66-.12-.62-.58,1.38.45,2.51,1.31,3.69,2.11,10.7,7.25,21.41,14.49,32.12,21.72,1.72,1.17,2.59,2.73,2.59,4.82Z" fill="#fefefe"/><path d="M101.2799,90.877c-.3,2-1.46,3.42-3.4301,4.06-1.71.55-3.29.19-4.7599-.81-7.26-4.93-14.53-9.84-21.8-14.7599-3.86-2.61-7.71-5.26-11.61-7.83-1.94-1.28-2.85-2.97-2.85-5.29.03-10.33.03-20.65,0-30.98,0-2.24.91-3.86,2.74-5.11,10.99-7.46,21.97-14.94,32.94-22.43.82-.56,1.68-1.01,2.59-1.37.04.17-.03.3-.18.39-7.37,4.39-14.24,9.55-21.38,14.3-4.45,2.96-8.8199,6.05-13.28,8.99-2.2,1.46-3.24,3.33-3.22,5.98.06,9.81.05,19.61,0,29.42-.0099,2.76,1.02,4.69,3.3701,6.26,10.87,7.23,21.66,14.57,32.4399,21.92.8.54,1.64.98,2.6,1.16,2.06.37,3.95-.53,4.94-2.35,1.04-1.9.79-4-.66-5.53-.41-.44-.88-.81-1.38-1.14-8.2-5.47-16.31-11.07-24.5-16.55-1.96-1.31-3.87-2.7-5.86-3.96-.91-.57-1.26-1.3101-1.26-2.38.03-8.09.03-16.1801,0-24.27,0-.98.35-1.62,1.16-2.17,8.79-5.96,17.56-11.95,26.34-17.91,1.45-.99,2.88-2.01,4.35-2.97,3.47-2.3,2.82-7.05-.52-8.46-.33-.13-.82-.18-.8-.73,1,.47,2.03.89,2.77,1.78,1.98,2.41,1.49,5.74-1.22,7.6-7.17,4.91-14.36,9.8-21.55,14.69-3.13,2.14-6.26,4.28-9.41,6.38-.59.4-.81.83-.81,1.55.03,8.25.03,16.51,0,24.76-.0099.88.32,1.34,1.01,1.81,10.29,6.93,20.56,13.89,30.83,20.84,1.82,1.23,2.72,2.93,2.4,5.11Z" fill="#fefefe"/><path d="M124.3399,80.857c-.29-.1-.59-.19-1.16-.36,1.2-.54,2.16-1.02,2.87-1.86,1.45-1.71,1.69-3.65.95-5.7-.8-2.23-2.65-3.08-4.8-3.41-2.81-.44-5.66-.13-8.48-.23-.7-.03-.64.4-.64.85,0,7.09.01,14.18-.01,21.27,0,.66.17.88.85.87,2.4-.04,4.79-.01,7.19-.03,1.24-.0099,2.45-.23,3.61-.72,2.42-1.02,3.68-3.03,3.59-5.77-.08-2.46-1.38-4.06-3.97-4.91ZM115.3799,70.697c2.19.1,4.39-.2,6.57.22,2.23.44,3.47,1.71,3.69,3.78.22,2.18-.81,3.93-2.8,4.79-1.68.72-3.45.53-5.2.54-2.84.01-2.84,0-2.84-2.82v-5.73c0-.42-.04-.81.58-.78ZM126.5099,87.037c-.35,2.08-2.05,3.52-4.49,3.76-2.16.21-4.31.07-6.47.12-.57.01-.77-.19-.76-.76.03-1.36.01-2.71.01-4.07,0-1.35.02-2.71-.01-4.06-.0099-.56.16-.79.75-.77,2.27.07,4.55-.15,6.81.21,3.08.49,4.67,2.62,4.16,5.57Z" fill="#fefefe"/><path d="M132.7899,77.057c-.02,2.35-.0099,4.7-.0099,7.05,0,2.43-.01,4.87.0099,7.3,0,.52.01.91-.72.89-.64-.02-.92-.14-.91-.86.02-4.8199.02-9.65,0-14.47,0-.62.18-.81.81-.83.75-.03.83.3.8199.92Z" fill="#fefefe"/><path d="M133.1999,71.697c-.02.73-.5,1.16-1.24,1.15-.75,0-1.14-.43-1.18-1.17.02-.77.42-1.21,1.17-1.22.81-.02,1.27.46,1.25,1.24Z" fill="#fefefe"/><path d="M110.9299,46.437c-.03-6.0099,0-12.03,0-18.05,0-6.21.01-12.43-.02-18.65-.01-.86.15-1.2,1.09-1.14,1.35.09,2.72.01,4.07.03,1.39.01,1.57.2,1.57,1.6v35.27c0,3.67,1.19,4.97,4.91,5.37,3.3.37,6.62.12,9.93.17,3.07.04,6.15.04,9.22-.01.76-.01.95.22.92.94-.05,1.31,0,2.63-.02,3.95-.02,1.32-.5099,1.82-1.8,1.82-5.63.01-11.26.03-16.89-.01-1.71-.01-3.42-.28-5.07-.78-5.05-1.5-7.88-5.23-7.91-10.51Z" fill="#fefefe"/><path d="M150.2399,79.957c-1.23-2.8-3.5-4.05-6.44-4.09-2.83-.05-5.13,1.0099-6.51,3.63-1.06,2.02-1.16,4.2-.91,6.39.44,3.83,3.05,6.41,6.54,6.58,4.35.2,7.02-1.81,7.91-5.95.16-.75.15-1.5.16-2.26.08-1.49-.15-2.93-.75-4.3ZM148.8499,87.627c-.87,2.35-2.6899,3.6201-5.21,3.61-2.53-.02-4.38-1.27-5.16-3.64-.8-2.46-.81-4.94.21-7.34.95-2.2,2.74-3.19,5.41-3.1,2.17.08,3.91,1.36,4.7,3.45.5,1.33.59,2.71.58,4.1-.07.99-.17,1.98-.53,2.92Z" fill="#fefefe"/><path d="M167.0699,80.697c-1.22-5.61-7.43-6.02-10.47-3.02-.34.32-.56.7599-.92,1.27-.4-.85-.36-1.37-.38-1.88-.02-.52-.06-.91-.77-.92-.8-.01-.66.5-.66.96,0,6.66.01,13.31-.01,19.97,0,.62.09.92.83.92.71,0,.85-.25.84-.89-.04-2.19-.02-4.37-.02-6.8,3.14,3.58,9.91,2.85,11.5-2.9901.6-2.2.55-4.4.06-6.62ZM164.7399,88.627c-1.77,3.09-6.34,3.53-8.68.83-.38-.43-.57-.89-.56-1.49.03-2.11.08-4.22-.01-6.32-.06-1.15.33-1.95,1.13-2.71,1.71-1.64,3.67-2.24,5.91-1.47,2.06.71,2.81,2.44,3.09,4.44.1.71.16,1.42.21,1.88-.06,1.85-.28,3.42-1.09,4.84Z" fill="#fefefe"/><path d="M171.9399,23.887c-6.18,14.34-12.38,28.68-18.54,43.03-.57,1.33-1.44,1.9-2.85,1.84-1.12-.05-2.24-.06-3.35.01-.95.05-1.2-.12-.74-1.07,1.8-3.81,3.51-7.66,5.32-11.47.4-.84.39-1.5.02-2.34-4.4-9.96-8.76-19.94-13.14-29.91-.1201-.28-.2401-.56-.42-1h5.59c1,0,1.78.35,2.19,1.34,3.02,7.22,6.22,14.36,9.08,21.65.2.52.34,1.06.5,1.57,2.13-5.21,4.25-10.43,6.38-15.65.97-2.35,1.97-4.69,2.88-7.07.49-1.29,1.31-1.91,2.71-1.86,1.51.06,3.03.02,4.53.02.22.38-.05.64-.16.91Z" fill="#fefefe"/><path d="M183.5699,91.647c.01.7-.4.6-.84.63-.61.05-.83-.16-.8199-.8.03-2.87.0099-5.74.0099-8.61v-.95c-.1-4.24-3.39-6.08-7.09-3.94-1.55.9-2.6,2-2.46,4.08.19,3.02.05,6.05.05,9.08,0,.58.17,1.17-.84,1.17-.95-.01-.77-.56-.77-1.09v-21.52c0-.56-.1-1.08.81-1.07.9.02.8.53.8,1.09-.0099,2.9,0,5.8,0,8.93,1.4901-1.44,2.92-2.54,4.85-2.72,3.66-.37,6.03,1.44,6.21,5.08.1801,3.54.05,7.09.09,10.64Z" fill="#fefefe"/><path d="M198.2199,91.587c-.01-3.62.04-7.25-.06-10.87-.07-2.45-1.5-4.27-3.53-4.69-2.64-.55-4.97.13-6.97,1.93-.27.25-.55.47-.2401.89.3.42.66.39,1.03.15.64-.41,1.21-.92,1.88-1.26,3.26-1.63,5.96-.16,6.34,3.43.04.4-.0099.8.04,1.19.11.82-.19,1.04-1.03,1.09-2.43.15-4.87.35-7.06,1.56-1.92,1.05-2.61,2.6-2.13,4.58.43,1.75,1.98,2.83,4.03,2.93,2.44.12,4.38-.92,6.18-2.66.1.71.19,1.24.26,1.78.06.51.38.64.84.63.5-.01.42-.38.42-.68ZM196.6999,86.687c0,2.44-1.86,4.33-4.56,4.59-.95.09-1.92.16-2.81-.35-1.89-1.11-1.92-3.76.02-4.91,2.09-1.24,4.47-1.36,6.82-1.48.43-.02.55.21.54.59-.02.52-.01,1.04-.01,1.56Z" fill="#fefefe"/><path d="M185.2199,57.477c-3.72-.83-5.84-3.94-5.86-8.49-.02-6.45-.03-12.91.03-19.37.01-1.07-.28-1.38-1.32-1.27-.87.09-1.75.01-2.63.02-.89.0099-1.33-.4901-1.41-1.3-.06-.6.03-1.2-.03-1.79-.09-.81.2-1.14,1.02-1.21,1.27-.11,2.53-.36,3.8-.47.63-.06.85-.31.93-.95.37-2.92.81-5.83,1.22-8.75.21-1.48.6-1.82,2.09-1.84q2.93-.04,2.93,2.84c0,2.51.05,5.03-.02,7.53-.02.9.23,1.14,1.1299,1.13,7.15-.04,14.3,0,21.45-.04.9401-.01,1.29.16,1.29,1.2-.04,10.44-.04,20.89-.01,31.33.01,1-.26,1.3-1.25,1.24-1.48-.08-2.96-.07-4.4299,0-.8201.03-1-.25-.99-1.01.03-4.51.01-9.01.01-13.51,0-4.43-.02-8.85.02-13.27.01-.84-.1101-1.17-1.0801-1.16-5.03.05-10.06.05-15.09,0-.86,0-1.05.25-1.04,1.07.03,6.3.01,12.59.02,18.89,0,3.45,2.8,5.18,5.81,3.44,2.52-1.45,2.28-.99,3.57,1.06,1.33,2.13,1.32,2.13-.89,3.35-2.92,1.6-6.03,2.05-9.27,1.33Z" fill="#fefefe"/><path d="M210.2499,76.917c-.13.63-.38.78-.99.63-3.42-.86-5.6,2.16-5.73,4.95-.14,2.9-.03,5.81-.04,8.71,0,.52.2001,1.08-.75,1.1-1,.0099-.85-.56-.85-1.15,0-4.66-.01-9.32.01-13.98,0-.4-.27-.9901.5701-1.03.8499-.03.8499.51.8699,1.09.03.69.0601,1.38.1101,2.42,1.0499-2.19,2.2999-3.64,4.5599-3.78.51-.03,1.0299.03,1.5399.09.5601.06.8301.3.7001.95Z" fill="#fefefe"/><path d="M211.3198,13.627c-.03,2.44-2.1699,4.5-4.6599,4.4901-2.48-.01-4.55-2.12-4.52-4.6.04-2.55,2.05-4.54,4.5701-4.53,2.5798.01,4.6499,2.09,4.6099,4.64Z" fill="#fefefe"/><path d="M233.3899,91.537c0,.6-.21.75-.77.75s-.86-.08-.86-.77c.02-3.35.0399-6.7-.03-10.05-.0599-2.78-1.5099-4.33-3.89-4.31-2.3699.02-4.1499,1.85-4.2,4.46-.05,3.23-.01,6.46-.01,9.69,0,.5099.12.99-.73.99-.8201,0-.89-.35-.89-1,0-3.43.0299-6.86-.08-10.28-.0801-2.24-1.2001-3.56-2.92-3.83-1.78-.28-4.26,1.1-4.91,2.77-.12.31-.09.7-.1,1.05v10.17c0,.57.1901,1.17-.84,1.13-.89-.04-.8-.5-.8-1.08v-14.11c.01-.44-.1599-.97.64-.97.7001,0,.78.37.7899.91,0,.43.0601.85.1201,1.5,3.8199-4.3,8.09-2.97,9.08.67.1-.08.2101-.14.27-.23,1.4301-2.58,3.66-3.63,6.37-2.9901,2.1599.51,3.65,2.48,3.72,5.25.1001,3.43.02,6.86.04,10.28Z" fill="#fefefe"/><path d="M248.0299,92.037c.09.06.17.12.25.19h-.25c-1.9701.28-.9401-1.49-1.5599-2.21-.5701.43-1.1401.92-1.76,1.33-1.75,1.15-3.6801,1.49-5.7001.94-1.52-.41-2.4601-1.44-2.7101-3.01-.26-1.63.1801-2.99,1.6101-3.94,1.61-1.07,3.4399-1.42,5.3-1.69.71-.1,1.4399-.27,2.1399-.19,1.1801.13,1.3401-.46,1.21-1.38-.02-.16,0-.32-.01-.48-.2899-4.19-3.4399-5.75-7.0299-3.48-.4701.3-.9.65-1.37.95-.38.2401-.65.08-.9-.2599-.2799-.3701-.0499-.56.1901-.78,2.09-1.9,4.52-2.68,7.28-1.91,2.3799.67,3.1199,2.62,3.3499,4.86.0701,0,.1401.01.2101.01-.08.05-.15.07-.2101.04-.01,0-.02,0-.03-.01-.0099-.01-.0099,0-.0099,0-.03-.01-.05-.03-.08-.06-.1501-.2-.2001-.43-.25-.67-.7001-3.89-3.9701-4.8-7.2201-3.74-.7599.25-1.46.65-2.1,1.14-.28.22-.85.46-.54.88.25.35.6301-.1.9-.29.88-.64,1.83-1.13,2.91-1.33,2.6499-.5,4.5601.82,5.02,3.47.52,3.04.53,3.08-2.53,3.45-1.75.21-3.48.47-5.1001,1.21-2,.92-2.7899,2.4-2.3599,4.42.33,1.56,1.8599,2.56,3.8099,2.67,1.9701.11,3.5699-.64,5.04-1.83.99-.8,1.11-.77,1.42.48.1499.55.3999.94.8999,1.13.04.03.0901.05.14.06.01.01.03.02.04.03Z" fill="#fefefe"/><path d="M226.6799,40.477c.47-.69.4199-1.11-.04-1.75-3.4-4.86-6.76-9.75-10.14-14.63-.2001-.3-.39-.59-.76-1.14,2.5699.08,4.9301-.14,7.29.16.5199.0699.74.55,1,.96,2.5,3.84,5,7.67,7.5,11.51.12.19.2699.37.47.64,1.34-2.86,3.27-5.16,4.87-7.68.99-1.54,2.0601-3.03,3.0701-4.56.3799-.56.84-.98,1.5399-.99,1.9901-.02,3.9701-.01,6.16-.01-.6899,1-1.27,1.84-1.8501,2.67-3,4.27-5.99,8.55-9.0299,12.79-.49.68-.4601,1.1-.02,1.76,3.5599,5.29,7.09,10.6,10.62,15.9.21.33.41.66.72,1.15-2.29,0-4.4199.04-6.5499-.02-.9301-.02-1.4401-.72-1.9-1.46-2.4-3.81-4.8201-7.6-7.23-11.4-.25-.4-.52-.79-.76-1.16-2.61,4.36-5.65,8.4-8.4,12.63-.6801,1.04-1.5299,1.5-2.7899,1.44-1.6301-.08-3.27-.02-4.9601-.02.03-.61.4301-.98.7001-1.38,3.48-5.15,6.96-10.3,10.49-15.41Z" fill="#fefefe"/><path d="M101.2799,90.877c-.3,2-1.46,3.42-3.4301,4.06-1.71.55-3.29.19-4.7599-.81-7.26-4.93-14.53-9.84-21.8-14.7599-3.86-2.61-7.71-5.26-11.61-7.83-1.94-1.28-2.85-2.97-2.85-5.29.03-10.33.03-20.65,0-30.98,0-2.24.91-3.86,2.74-5.11,10.99-7.46,21.97-14.94,32.94-22.43.82-.56,1.68-1.01,2.59-1.37h2.16c1,.47,2.03.89,2.77,1.78,1.98,2.41,1.49,5.74-1.22,7.6-7.17,4.91-14.36,9.8-21.55,14.69-3.13,2.14-6.26,4.28-9.41,6.38-.59.4-.81.83-.81,1.55.03,8.25.03,16.51,0,24.76-.0099.88.32,1.34,1.01,1.81,10.29,6.93,20.56,13.89,30.83,20.84,1.82,1.23,2.72,2.93,2.4,5.11Z" fill="#27b196"/><path d="M51.0399,35.007c-.0099,10.53-.0099,21.05,0,31.58,0,2-.86,3.52-2.49,4.63-11.24,7.66-22.48,15.32-33.73,22.97-2.54,1.72-5.65,1.17-7.29-1.23-1.61-2.38-.94-5.47,1.61-7.2,10.25-6.99,20.5-13.98,30.77-20.94.6299-.43.9-.86.89-1.64-.02-8.29-.02-16.59,0-24.88,0-.71-.19-1.16-.8-1.57-10.26-6.91-20.49-13.86-30.74-20.77-1.84-1.24-2.88-2.83-2.64-5.09.24-2.28,1.56-3.67,3.7-4.36.06-.02.11-.1.17-.15h2.15c1.38.45,2.51,1.31,3.69,2.11,10.7,7.25,21.41,14.49,32.12,21.72,1.72,1.17,2.59,2.73,2.59,4.82Z" fill="#27b196"/><path d="M248.2799,80.987v11.24h-.25c-.08-.09-.14-.18-.1801-.28-.2-.37-.1899-.78-.1899-1.19-.01-2.78-.02-5.56,0-8.34,0-.49-.04-1.01.37-1.4,0,0,0-.01.0099,0,.01-.02.02-.03.03-.04.0701,0,.1401.01.2101.01Z" fill="#c2cfd5"/><path d="M209.8298,56.047c.01,1-.26,1.3-1.25,1.24-1.48-.08-2.96-.07-4.4299,0-.8201.03-1-.25-.99-1.01.03-4.51.01-9.01.01-13.51,0-4.43-.02-8.85.02-13.27.01-.84-.1101-1.17-1.0801-1.16-5.03.05-10.06.05-15.09,0-.86,0-1.05.25-1.04,1.07.03,6.3.01,12.59.02,18.89,0,3.45,2.8,5.18,5.81,3.44,2.52-1.45,2.28-.99,3.57,1.06,1.33,2.13,1.32,2.13-.89,3.35-2.92,1.6-6.03,2.05-9.27,1.33-3.72-.83-5.84-3.94-5.86-8.49-.02-6.45-.03-12.91.03-19.37.01-1.07-.28-1.38-1.32-1.27-.87.09-1.75.01-2.63.02-.89.0099-1.33-.4901-1.41-1.3-.06-.6.03-1.2-.03-1.79-.09-.81.2-1.14,1.02-1.21,1.27-.11,2.53-.36,3.8-.47.63-.06.85-.31.93-.95.37-2.92.81-5.83,1.22-8.75.21-1.48.6-1.82,2.09-1.84q2.93-.04,2.93,2.84c0,2.51.05,5.03-.02,7.53-.02.9.23,1.14,1.1299,1.13,7.15-.04,14.3,0,21.45-.04.9401-.01,1.29.16,1.29,1.2-.04,10.44-.04,20.89-.01,31.33Z" fill="#0a425d"/><path d="M171.9399,23.887c-6.18,14.34-12.38,28.68-18.54,43.03-.57,1.33-1.44,1.9-2.85,1.84-1.12-.05-2.24-.06-3.35.01-.95.05-1.2-.12-.74-1.07,1.8-3.81,3.51-7.66,5.32-11.47.4-.84.39-1.5.02-2.34-4.4-9.96-8.76-19.94-13.14-29.91-.1201-.28-.2401-.56-.42-1h5.59c1,0,1.78.35,2.19,1.34,3.02,7.22,6.22,14.36,9.08,21.65.2.52.34,1.06.5,1.57,2.13-5.21,4.25-10.43,6.38-15.65.97-2.35,1.97-4.69,2.88-7.07.49-1.29,1.31-1.91,2.71-1.86,1.51.06,3.03.02,4.53.02.22.38-.05.64-.16.91Z" fill="#0a425d"/><path d="M142.5999,55.917c-.02,1.32-.5099,1.82-1.8,1.82-5.63.01-11.26.03-16.89-.01-1.71-.01-3.42-.28-5.07-.78-5.05-1.5-7.88-5.23-7.91-10.51-.03-6.0099,0-12.03,0-18.05,0-6.21.01-12.43-.02-18.65-.01-.86.15-1.2,1.09-1.14,1.35.09,2.72.01,4.07.03,1.39.01,1.57.2,1.57,1.6v35.27c0,3.67,1.19,4.97,4.91,5.37,3.3.37,6.62.12,9.93.17,3.07.04,6.15.04,9.22-.01.76-.01.95.22.92.94-.05,1.31,0,2.63-.02,3.95Z" fill="#0a425d"/><path d="M248.0798,57.257c-2.29,0-4.4199.04-6.5499-.02-.9301-.02-1.4401-.72-1.9-1.46-2.4-3.81-4.8201-7.6-7.23-11.4-.25-.4-.52-.79-.76-1.16-2.61,4.36-5.65,8.4-8.4,12.63-.6801,1.04-1.5299,1.5-2.7899,1.44-1.6301-.08-3.27-.02-4.9601-.02.03-.61.4301-.98.7001-1.38,3.48-5.15,6.96-10.3,10.49-15.41.47-.69.4199-1.11-.04-1.75-3.4-4.86-6.76-9.75-10.14-14.63-.2001-.3-.39-.59-.76-1.14,2.5699.08,4.9301-.14,7.29.16.5199.0699.74.55,1,.96,2.5,3.84,5,7.67,7.5,11.51.12.19.2699.37.47.64,1.34-2.86,3.27-5.16,4.87-7.68.99-1.54,2.0601-3.03,3.0701-4.56.3799-.56.84-.98,1.5399-.99,1.9901-.02,3.9701-.01,6.16-.01-.6899,1-1.27,1.84-1.8501,2.67-3,4.27-5.99,8.55-9.0299,12.79-.49.68-.4601,1.1-.02,1.76,3.5599,5.29,7.09,10.6,10.62,15.9.21.33.41.66.72,1.15Z" fill="#0a425d"/><path d="M124.3399,80.857c-.29-.1-.59-.19-1.16-.36,1.2-.54,2.16-1.02,2.87-1.86,1.45-1.71,1.69-3.65.95-5.7-.8-2.23-2.65-3.08-4.8-3.41-2.81-.44-5.66-.13-8.48-.23-.7-.03-.64.4-.64.85,0,7.09.01,14.18-.01,21.27,0,.66.17.88.85.87,2.4-.04,4.79-.01,7.19-.03,1.24-.0099,2.45-.23,3.61-.72,2.42-1.02,3.68-3.03,3.59-5.77-.08-2.46-1.38-4.06-3.97-4.91ZM115.3799,70.697c2.19.1,4.39-.2,6.57.22,2.23.44,3.47,1.71,3.69,3.78.22,2.18-.81,3.93-2.8,4.79-1.68.72-3.45.53-5.2.54-2.84.01-2.84,0-2.84-2.82v-5.73c0-.42-.04-.81.58-.78ZM126.5099,87.037c-.35,2.08-2.05,3.52-4.49,3.76-2.16.21-4.31.07-6.47.12-.57.01-.77-.19-.76-.76.03-1.36.01-2.71.01-4.07,0-1.35.02-2.71-.01-4.06-.0099-.56.16-.79.75-.77,2.27.07,4.55-.15,6.81.21,3.08.49,4.67,2.62,4.16,5.57Z" fill="#0a425d"/><path d="M233.3899,91.537c0,.6-.21.75-.77.75s-.86-.08-.86-.77c.02-3.35.0399-6.7-.03-10.05-.0599-2.78-1.5099-4.33-3.89-4.31-2.3699.02-4.1499,1.85-4.2,4.46-.05,3.23-.01,6.46-.01,9.69,0,.5099.12.99-.73.99-.8201,0-.89-.35-.89-1,0-3.43.0299-6.86-.08-10.28-.0801-2.24-1.2001-3.56-2.92-3.83-1.78-.28-4.26,1.1-4.91,2.77-.12.31-.09.7-.1,1.05v10.17c0,.57.1901,1.17-.84,1.13-.89-.04-.8-.5-.8-1.08v-14.11c.01-.44-.1599-.97.64-.97.7001,0,.78.37.7899.91,0,.43.0601.85.1201,1.5,3.8199-4.3,8.09-2.97,9.08.67.1-.08.2101-.14.27-.23,1.4301-2.58,3.66-3.63,6.37-2.9901,2.1599.51,3.65,2.48,3.72,5.25.1001,3.43.02,6.86.04,10.28Z" fill="#0b425d"/><path d="M167.0699,80.697c-1.22-5.61-7.43-6.02-10.47-3.02-.34.32-.56.7599-.92,1.27-.4-.85-.36-1.37-.38-1.88-.02-.52-.06-.91-.77-.92-.8-.01-.66.5-.66.96,0,6.66.01,13.31-.01,19.97,0,.62.09.92.83.92.71,0,.85-.25.84-.89-.04-2.19-.02-4.37-.02-6.8,3.14,3.58,9.91,2.85,11.5-2.9901.6-2.2.55-4.4.06-6.62ZM164.7399,88.627c-1.77,3.09-6.34,3.53-8.68.83-.38-.43-.57-.89-.56-1.49.03-2.11.08-4.22-.01-6.32-.06-1.15.33-1.95,1.13-2.71,1.71-1.64,3.67-2.24,5.91-1.47,2.06.71,2.81,2.44,3.09,4.44.1.71.16,1.42.21,1.88-.06,1.85-.28,3.42-1.09,4.84Z" fill="#0b425d"/><path d="M183.5699,91.647c.01.7-.4.6-.84.63-.61.05-.83-.16-.8199-.8.03-2.87.0099-5.74.0099-8.61v-.95c-.1-4.24-3.39-6.08-7.09-3.94-1.55.9-2.6,2-2.46,4.08.19,3.02.05,6.05.05,9.08,0,.58.17,1.17-.84,1.17-.95-.01-.77-.56-.77-1.09v-21.52c0-.56-.1-1.08.81-1.07.9.02.8.53.8,1.09-.0099,2.9,0,5.8,0,8.93,1.4901-1.44,2.92-2.54,4.85-2.72,3.66-.37,6.03,1.44,6.21,5.08.1801,3.54.05,7.09.09,10.64Z" fill="#0b425d"/><path d="M150.2399,79.957c-1.23-2.8-3.5-4.05-6.44-4.09-2.83-.05-5.13,1.0099-6.51,3.63-1.06,2.02-1.16,4.2-.91,6.39.44,3.83,3.05,6.41,6.54,6.58,4.35.2,7.02-1.81,7.91-5.95.16-.75.15-1.5.16-2.26.08-1.49-.15-2.93-.75-4.3ZM148.8499,87.627c-.87,2.35-2.6899,3.6201-5.21,3.61-2.53-.02-4.38-1.27-5.16-3.64-.8-2.46-.81-4.94.21-7.34.95-2.2,2.74-3.19,5.41-3.1,2.17.08,3.91,1.36,4.7,3.45.5,1.33.59,2.71.58,4.1-.07.99-.17,1.98-.53,2.92Z" fill="#0a425d"/><path d="M211.3198,13.627c-.03,2.44-2.1699,4.5-4.6599,4.4901-2.48-.01-4.55-2.12-4.52-4.6.04-2.55,2.05-4.54,4.5701-4.53,2.5798.01,4.6499,2.09,4.6099,4.64Z" fill="#0a425d"/><path d="M244.72,76.117c-2.76-.77-5.1901.0099-7.28,1.91-.24.22-.47.41-.1901.78.25.34.52.5.9.2599.47-.3.8999-.65,1.37-.95,3.59-2.27,6.74-.71,7.0299,3.48.01.16-.01.32.01.48.1301.92-.0299,1.51-1.21,1.38-.7-.08-1.4299.09-2.1399.19-1.8601.27-3.6901.62-5.3,1.69-1.4301.95-1.8701,2.31-1.6101,3.94.25,1.57,1.1901,2.6,2.7101,3.01,2.02.55,3.9501.21,5.7001-.94.6199-.41,1.1899-.9,1.76-1.33.6199.72-.4102,2.49,1.5599,2.21v-.19c.0099-3.67.0299-7.34.0399-11.01v-.05c-.23-2.24-.97-4.19-3.3499-4.86ZM239.3699,90.987c-1.86-.78-2.22-3.43-.63-4.64,2.1801-1.64,4.8199-1.67,7.4-1.8.38-.02.4299.26.4199.56v1.82c.52,1.64-.72,2.59-2.08,3.44-1.59.99-3.34,1.36-5.11.62Z" fill="#0a425d"/><path d="M198.2199,91.587c-.01-3.62.04-7.25-.06-10.87-.07-2.45-1.5-4.27-3.53-4.69-2.64-.55-4.97.13-6.97,1.93-.27.25-.55.47-.2401.89.3.42.66.39,1.03.15.64-.41,1.21-.92,1.88-1.26,3.26-1.63,5.96-.16,6.34,3.43.04.4-.0099.8.04,1.19.11.82-.19,1.04-1.03,1.09-2.43.15-4.87.35-7.06,1.56-1.92,1.05-2.61,2.6-2.13,4.58.43,1.75,1.98,2.83,4.03,2.93,2.44.12,4.38-.92,6.18-2.66.1.71.19,1.24.26,1.78.06.51.38.64.84.63.5-.01.42-.38.42-.68ZM196.6999,86.687c0,2.44-1.86,4.33-4.56,4.59-.95.09-1.92.16-2.81-.35-1.89-1.11-1.92-3.76.02-4.91,2.09-1.24,4.47-1.36,6.82-1.48.43-.02.55.21.54.59-.02.52-.01,1.04-.01,1.56Z" fill="#0a425d"/><path d="M210.2499,76.917c-.13.63-.38.78-.99.63-3.42-.86-5.6,2.16-5.73,4.95-.14,2.9-.03,5.81-.04,8.71,0,.52.2001,1.08-.75,1.1-1,.0099-.85-.56-.85-1.15,0-4.66-.01-9.32.01-13.98,0-.4-.27-.9901.5701-1.03.8499-.03.8499.51.8699,1.09.03.69.0601,1.38.1101,2.42,1.0499-2.19,2.2999-3.64,4.5599-3.78.51-.03,1.0299.03,1.5399.09.5601.06.8301.3.7001.95Z" fill="#0d445f"/><path d="M132.7799,84.107c0,2.43-.01,4.87.0099,7.3,0,.52.01.91-.72.89-.64-.02-.92-.14-.91-.86.02-4.8199.02-9.65,0-14.47,0-.62.18-.81.81-.83.75-.03.83.3.8199.92-.02,2.35-.0099,4.7-.0099,7.05Z" fill="#0f4660"/><path d="M133.1999,71.697c-.02.73-.5,1.16-1.24,1.15-.75,0-1.14-.43-1.18-1.17.02-.77.42-1.21,1.17-1.22.81-.02,1.27.46,1.25,1.24Z" fill="#0e4560"/></svg>